<?xml version="1.0" encoding="utf-8"?>
<svg xmlns="http://www.w3.org/2000/svg" viewBox="78.7839 157.0449 358.497 190.7829" width="358.497px" height="190.783px">
  <path id="Path_299" data-name="Path 299" d="M1040.82,611.12q-1.74,3.75-3.47,7.4-2.7,5.67-5.33,11.12c-.78,1.61-1.56,3.19-2.32,4.77-8.6,17.57-16.63,33.11-23.45,45.89A73.21,73.21,0,0,1,942.44,719l-151.65,1.65h-1.6l-13,.14-11.12.12-34.1.37h-1.38l-17.36.19h-.53l-107,1.16-95.51,1-11.11.12-69,.75H429l-44.75.48h-.48l-141.5,1.53-42.33.46a87.991,87.991,0,0,1-10.79-.54h0c-1.22-.14-2.44-.3-3.65-.49a87.38,87.38,0,0,1-51.29-27.54C116,678.37,102.75,655,93.85,629.64q-1.93-5.49-3.6-11.12C59.44,514.37,97,380,164.6,290.08q4.25-5.64,8.64-11l.07-.08c20.79-25.52,44.1-46.84,68.93-62,44-26.91,92.75-34.49,140.7-11.9,40.57,19.12,78.45,28.11,115.17,30.55,3.71.24,7.42.42,11.11.53,84.23,2.65,163.17-27.7,255.87-47.29,3.69-.78,7.39-1.55,11.12-2.28,66.13-13.16,139.49-20.1,226.73-5.51a189.089,189.089,0,0,1,26.76,6.4q5.77,1.86,11.12,4c41.64,16.94,64.35,48.24,74,87.46q1.37,5.46,2.37,11.11C1134.3,384.41,1084.19,518.23,1040.82,611.12Z" transform="matrix(0.3442859947681427, 0, 0, 0.3442859947681427, 51.46456789597616, 97.50234300165744)" fill="#f2f2f2"/>
  <path id="Path_300" data-name="Path 300" d="M576.36,618.52a95.21,95.21,0,0,1-1.87,11.12h93.7V618.52Zm-78.25,62.81,11.11-.09V653.77c-3.81-.17-7.52-.34-11.11-.52ZM265.19,618.52v11.12h198.5V618.52ZM1114.87,279h-74V191.51q-5.35-2.17-11.12-4V279H776.21V186.58c-3.73.73-7.43,1.5-11.12,2.28V279H509.22V236.15c-3.69-.11-7.4-.29-11.11-.53V279H242.24V217c-24.83,15.16-48.14,36.48-68.93,62h-.07v.08q-4.4,5.4-8.64,11h8.64V618.52h-83q1.66,5.63,3.6,11.12h79.39v93.62a87,87,0,0,0,12.2,2.79c1.21.19,2.43.35,3.65.49h0a87.991,87.991,0,0,0,10.79.54l42.33-.46v-97H498.11v94.21l11.11-.12V629.64H765.09V721l11.12-.12V629.64H1029.7v4.77c.76-1.58,1.54-3.16,2.32-4.77q2.63-5.45,5.33-11.12,1.73-3.64,3.47-7.4v-321h76.42Q1116.23,284.43,1114.87,279ZM242.24,618.52V290.08H498.11V618.52Zm267,0V290.08H765.09V618.52Zm520.48,0H776.21V290.08H1029.7Z" transform="matrix(0.3442859947681427, 0, 0, 0.3442859947681427, 51.46456789597616, 97.50234300165744)" opacity="0.1"/>
  <path id="Path_301" data-name="Path 301" d="M863.09,533.65v13l-151.92,1.4-1.62.03-57.74.53-1.38.02-17.55.15h-.52l-106.98.99L349.77,551.4h-.15l-44.65.42-.48.01-198.4,1.82v-15l46.65-28,93.6-.78,2-.01.66-.01,2-.03,44.94-.37,2.01-.01.64-.01,2-.01L315,509.3l.38-.01,35.55-.3h.29l277.4-2.34,6.79-.05h.68l5.18-.05,37.65-.31,2-.03,1.85-.02h.96l11.71-.09,2.32-.03,3.11-.02,9.75-.09,15.47-.13,2-.02,3.48-.02h.65l74.71-.64Z" fill="#65617d" transform="matrix(0.3442859947681427, 0, 0, 0.3442859947681427, 78.78021746006766, 157.03283561782996)"/>
  <path id="Path_302" data-name="Path 302" d="M863.09,533.65v13l-151.92,1.4-1.62.03-57.74.53-1.38.02-17.55.15h-.52l-106.98.99L349.77,551.4h-.15l-44.65.42-.48.01-198.4,1.82v-15l46.65-28,93.6-.78,2-.01.66-.01,2-.03,44.94-.37,2.01-.01.64-.01,2-.01L315,509.3l.38-.01,35.55-.3h.29l277.4-2.34,6.79-.05h.68l5.18-.05,37.65-.31,2-.03,1.85-.02h.96l11.71-.09,2.32-.03,3.11-.02,9.75-.09,15.47-.13,2-.02,3.48-.02h.65l74.71-.64Z" opacity="0.2" transform="matrix(0.3442859947681427, 0, 0, 0.3442859947681427, 78.78021746006766, 157.03283561782996)"/>
  <path id="Path_303" data-name="Path 303" d="M375.44,656.57v24.49a6.13,6.13,0,0,1-3.5,5.54,6,6,0,0,1-2.5.6l-34.9.74a6,6,0,0,1-2.7-.57,6.12,6.12,0,0,1-3.57-5.57V656.57Z" transform="matrix(0.3442859947681427, 0, 0, 0.3442859947681427, 51.46456789597616, 97.50234300165744)" fill="#3f3d56"/>
  <path id="Path_304" data-name="Path 304" d="M375.44,656.57v24.49a6.13,6.13,0,0,1-3.5,5.54,6,6,0,0,1-2.5.6l-34.9.74a6,6,0,0,1-2.7-.57,6.12,6.12,0,0,1-3.57-5.57V656.57Z" transform="matrix(0.3442859947681427, 0, 0, 0.3442859947681427, 51.46456789597616, 97.50234300165744)" opacity="0.1"/>
  <path id="Path_305" data-name="Path 305" d="M377.44,656.57v24.49a6.13,6.13,0,0,1-3.5,5.54,6,6,0,0,1-2.5.6l-34.9.74a6,6,0,0,1-2.7-.57,6.12,6.12,0,0,1-3.57-5.57V656.57Z" transform="matrix(0.3442859947681427, 0, 0, 0.3442859947681427, 51.46456789597616, 97.50234300165744)" fill="#3f3d56"/>
  <rect id="Rectangle_137" data-name="Rectangle 137" width="47.17" height="31.5" transform="matrix(0.3442859947681427, 0, 0, 0.3442859947681427, 313.21145214734696, 323.54675488608723)" fill="#3f3d56"/>
  <rect id="Rectangle_138" data-name="Rectangle 138" width="47.17" height="31.5" transform="matrix(0.3442859947681427, 0, 0, 0.3442859947681427, 313.21145214734696, 323.54675488608723)" opacity="0.1"/>
  <rect id="Rectangle_139" data-name="Rectangle 139" width="47.17" height="31.5" transform="matrix(0.3442859947681427, 0, 0, 0.3442859947681427, 312.5228801578107, 323.54675488608723)" fill="#3f3d56"/>
  <path id="Path_306" data-name="Path 306" d="M298.09,483.65v4.97l-47.17,1.26v-6.23Z" opacity="0.1" transform="matrix(0.3442859947681427, 0, 0, 0.3442859947681427, 78.78021746006766, 157.03283561782996)"/>
  <path id="Path_307" data-name="Path 307" d="M460.69,485.27v168.2a4,4,0,0,1-3.85,3.95l-191.65,5.1h-.05a4,4,0,0,1-3.95-3.95V485.27a4,4,0,0,1,3.95-3.95h191.6a4,4,0,0,1,3.95,3.95Z" transform="matrix(0.3442859947681427, 0, 0, 0.3442859947681427, 51.46456789597616, 97.50234300165744)" fill="#65617d"/>
  <path id="Path_308" data-name="Path 308" d="M265.19,481.32v181.2h-.05a4,4,0,0,1-3.95-3.95V485.27a4,4,0,0,1,3.95-3.95Z" transform="matrix(0.3442859947681427, 0, 0, 0.3442859947681427, 51.46456789597616, 97.50234300165744)" opacity="0.1"/>
  <path id="Path_309" data-name="Path 309" d="M194.59,319.15h177.5V467.4l-177.5,4Z" fill="#39374d" transform="matrix(0.3442859947681427, 0, 0, 0.3442859947681427, 78.78021746006766, 157.03283561782996)"/>
  <path id="Path_310" data-name="Path 310" d="M726.09,483.65v6.41l-47.17-1.26v-5.15Z" opacity="0.1" transform="matrix(0.3442859947681427, 0, 0, 0.3442859947681427, 78.78021746006766, 157.03283561782996)"/>
  <path id="Path_311" data-name="Path 311" d="M867.69,485.27v173.3a4,4,0,0,1-4,3.95h0L672,657.42a4,4,0,0,1-3.85-3.95V485.27a4,4,0,0,1,3.95-3.95H863.7a4,4,0,0,1,3.99,3.95Z" transform="matrix(0.3442859947681427, 0, 0, 0.3442859947681427, 51.46456789597616, 97.50234300165744)" fill="#65617d"/>
  <path id="Path_312" data-name="Path 312" d="M867.69,485.27v173.3a4,4,0,0,1-4,3.95h0V481.32h0a4,4,0,0,1,4,3.95Z" transform="matrix(0.3442859947681427, 0, 0, 0.3442859947681427, 51.46456789597616, 97.50234300165744)" opacity="0.1"/>
  <path id="Path_313" data-name="Path 313" d="M775.59,319.15H598.09V467.4l177.5,4Z" fill="#39374d" transform="matrix(0.3442859947681427, 0, 0, 0.3442859947681427, 78.78021746006766, 157.03283561782996)"/>
  <path id="Path_314" data-name="Path 314" d="M663.19,485.27v168.2a4,4,0,0,1-3.85,3.95l-191.65,5.1h0a4,4,0,0,1-4-3.95V485.27a4,4,0,0,1,3.95-3.95h191.6A4,4,0,0,1,663.19,485.27Z" transform="matrix(0.3442859947681427, 0, 0, 0.3442859947681427, 51.46456789597616, 97.50234300165744)" fill="#65617d"/>
  <path id="Path_315" data-name="Path 315" d="M397.09,319.15h177.5V467.4l-177.5,4Z" fill="#4267b2" transform="matrix(0.3442859947681427, 0, 0, 0.3442859947681427, 78.78021746006766, 157.03283561782996)"/>
  <path id="Path_316" data-name="Path 316" d="M863.09,533.65v13l-151.92,1.4-1.62.03-57.74.53-1.38.02-17.55.15h-.52l-106.98.99L349.77,551.4h-.15l-44.65.42-.48.01-198.4,1.82v-15l202.51-1.33h.48l40.99-.28h.19l283.08-1.87h.29l.17-.01h.47l4.79-.03h1.46l74.49-.5,4.4-.02.98-.01Z" opacity="0.1" transform="matrix(0.3442859947681427, 0, 0, 0.3442859947681427, 78.78021746006766, 157.03283561782996)"/>
  <circle id="Ellipse_111" data-name="Ellipse 111" cx="440.78" cy="298.15" r="51.33" fill="#fbbebe" transform="matrix(0.3442859947681427, 0, 0, 0.3442859947681427, 78.78021746006766, 157.03283561782996)"/>
  <g id="docusaurus_keytar" transform="matrix(0.28991359964312835, 0, 0, 0.28991359964312835, 245.66167918905353, 278.6600306584242)" style="">
    <path id="Path_40" data-name="Path 40" d="M 49.324 18.064 L 92.959 18.064 L 92.959 35.726 L 49.324 35.726 L 49.324 18.064 Z" fill="#fff" fill-rule="evenodd"/>
    <path id="Path_41" data-name="Path 41" d="M13.389,158.195A10.377,10.377,0,0,1,4.4,153a10.377,10.377,0,0,0,8.988,15.584H23.779V158.195Z" transform="translate(-3 -82.47)" fill="#3ecc5f" fill-rule="evenodd"/>
    <path id="Path_42" data-name="Path 42" d="M66.967,38.083l36.373-2.273V30.615A10.389,10.389,0,0,0,92.95,20.226H46.2l-1.3-2.249a1.5,1.5,0,0,0-2.6,0L41,20.226l-1.3-2.249a1.5,1.5,0,0,0-2.6,0l-1.3,2.249-1.3-2.249a1.5,1.5,0,0,0-2.6,0l-1.3,2.249-.034,0-2.152-2.151a1.5,1.5,0,0,0-2.508.672L25.21,21.4l-2.7-.723a1.5,1.5,0,0,0-1.836,1.837l.722,2.7-2.65.71a1.5,1.5,0,0,0-.673,2.509l2.152,2.152c0,.011,0,.022,0,.033l-2.249,1.3a1.5,1.5,0,0,0,0,2.6l2.249,1.3-2.249,1.3a1.5,1.5,0,0,0,0,2.6L20.226,41l-2.249,1.3a1.5,1.5,0,0,0,0,2.6l2.249,1.3-2.249,1.3a1.5,1.5,0,0,0,0,2.6l2.249,1.3-2.249,1.3a1.5,1.5,0,0,0,0,2.6l2.249,1.3-2.249,1.3a1.5,1.5,0,0,0,0,2.6l2.249,1.3-2.249,1.3a1.5,1.5,0,0,0,0,2.6l2.249,1.3-2.249,1.3a1.5,1.5,0,0,0,0,2.6l2.249,1.3-2.249,1.3a1.5,1.5,0,0,0,0,2.6l2.249,1.3-2.249,1.3a1.5,1.5,0,0,0,0,2.6l2.249,1.3-2.249,1.3a1.5,1.5,0,0,0,0,2.6l2.249,1.3-2.249,1.3a1.5,1.5,0,0,0,0,2.6l2.249,1.3A10.389,10.389,0,0,0,30.615,103.34H92.95A10.389,10.389,0,0,0,103.34,92.95V51.393L66.967,49.12a5.53,5.53,0,0,1,0-11.038" fill="#3ecc5f" fill-rule="evenodd" transform="translate(-9.836 -17.226)"/>
    <path id="Path_43" data-name="Path 43" d="M143,163.779h15.584V143H143Z" transform="translate(-70.275 -77.665)" fill="#3ecc5f" fill-rule="evenodd"/>
    <path id="Path_44" data-name="Path 44" d="M173.779,148.389a2.582,2.582,0,0,0-.332.033c-.02-.078-.038-.156-.06-.234a2.594,2.594,0,1,0-2.567-4.455q-.086-.088-.174-.175a2.593,2.593,0,1,0-4.461-2.569c-.077-.022-.154-.04-.231-.06a2.6,2.6,0,1,0-5.128,0c-.077.02-.154.038-.231.06a2.594,2.594,0,1,0-4.461,2.569,10.384,10.384,0,1,0,17.314,9.992,2.592,2.592,0,1,0,.332-5.161" transform="translate(-75.08 -75.262)" fill="#44d860" fill-rule="evenodd"/>
    <path id="Path_45" data-name="Path 45" d="M153,113.389h15.584V103H153Z" transform="translate(-75.08 -58.444)" fill="#3ecc5f" fill-rule="evenodd"/>
    <path id="Path_46" data-name="Path 46" d="M183.389,108.944a1.3,1.3,0,1,0,0-2.6,1.336,1.336,0,0,0-.166.017c-.01-.039-.019-.078-.03-.117a1.3,1.3,0,0,0-.5-2.5,1.285,1.285,0,0,0-.783.269q-.043-.044-.087-.087a1.285,1.285,0,0,0,.263-.776,1.3,1.3,0,0,0-2.493-.509,5.195,5.195,0,1,0,0,10,1.3,1.3,0,0,0,2.493-.509,1.285,1.285,0,0,0-.263-.776q.044-.043.087-.087a1.285,1.285,0,0,0,.783.269,1.3,1.3,0,0,0,.5-2.5c.011-.038.02-.078.03-.117a1.337,1.337,0,0,0,.166.017" transform="translate(-84.691 -57.894)" fill="#44d860" fill-rule="evenodd"/>
    <path id="Path_47" data-name="Path 47" d="M52.188,48.292a1.3,1.3,0,0,1-1.3-1.3,3.9,3.9,0,0,0-7.792,0,1.3,1.3,0,1,1-2.6,0,6.493,6.493,0,0,1,12.987,0,1.3,1.3,0,0,1-1.3,1.3" transform="translate(-21.02 -28.41)" fill-rule="evenodd"/>
    <path id="Path_48" data-name="Path 48" d="M103,139.752h31.168a10.389,10.389,0,0,0,10.389-10.389V93H113.389A10.389,10.389,0,0,0,103,103.389Z" transform="translate(-51.054 -53.638)" fill="#ffff50" fill-rule="evenodd"/>
    <path id="Path_49" data-name="Path 49" d="M 85.143 55.217 L 59.149 55.217 C 58.749 55.217 58.499 54.784 58.699 54.438 C 58.792 54.277 58.963 54.178 59.149 54.178 L 85.143 54.178 C 85.543 54.178 85.793 54.611 85.593 54.957 C 85.5 55.118 85.328 55.217 85.143 55.217 M 85.143 65.606 L 59.149 65.606 C 58.749 65.606 58.499 65.173 58.699 64.827 C 58.792 64.666 58.963 64.567 59.149 64.567 L 85.143 64.567 C 85.543 64.567 85.793 65 85.593 65.346 C 85.5 65.507 85.328 65.606 85.143 65.606 M 85.143 75.995 L 59.149 75.995 C 58.749 75.995 58.499 75.562 58.699 75.216 C 58.792 75.055 58.963 74.956 59.149 74.956 L 85.143 74.956 C 85.543 74.956 85.793 75.389 85.593 75.735 C 85.5 75.896 85.328 75.995 85.143 75.995 M 85.143 50.118 L 59.149 50.118 C 58.749 50.118 58.499 49.685 58.699 49.339 C 58.792 49.178 58.963 49.079 59.149 49.079 L 85.143 49.079 C 85.543 49.079 85.793 49.512 85.593 49.858 C 85.5 50.019 85.328 50.118 85.143 50.118 M 85.143 60.411 L 59.149 60.411 C 58.749 60.411 58.499 59.978 58.699 59.632 C 58.792 59.471 58.963 59.372 59.149 59.372 L 85.143 59.372 C 85.543 59.372 85.793 59.805 85.593 60.151 C 85.5 60.312 85.328 60.411 85.143 60.411 M 85.143 70.8 L 59.149 70.8 C 58.749 70.8 58.499 70.367 58.699 70.021 C 58.792 69.86 58.963 69.761 59.149 69.761 L 85.143 69.761 C 85.543 69.761 85.793 70.194 85.593 70.54 C 85.5 70.701 85.328 70.8 85.143 70.8 M 92.925 22.807 C 92.919 22.807 92.914 22.807 92.907 22.807 C 91.302 22.862 90.542 24.467 89.872 25.884 C 89.172 27.364 88.632 28.327 87.746 28.298 C 86.765 28.263 86.204 27.154 85.609 25.981 C 84.926 24.634 84.147 23.105 82.509 23.162 C 80.927 23.216 80.165 24.613 79.492 25.846 C 78.777 27.159 78.292 27.958 77.351 27.921 C 76.351 27.885 75.818 26.983 75.202 25.94 C 74.516 24.778 73.723 23.473 72.118 23.517 C 70.563 23.57 69.799 24.756 69.124 25.803 C 68.411 26.909 67.911 27.584 66.96 27.544 C 65.935 27.508 65.406 26.76 64.793 25.894 C 64.105 24.921 63.33 23.82 61.731 23.873 C 60.498 23.982 59.395 24.683 58.772 25.752 C 58.132 26.564 57.632 27.208 56.572 27.167 C 56.171 27.163 55.917 27.594 56.114 27.942 C 56.2 28.096 56.359 28.195 56.535 28.206 C 57.8 28.182 58.958 27.494 59.585 26.395 C 60.196 25.618 60.724 24.947 61.763 24.912 C 62.763 24.869 63.233 25.491 63.942 26.494 C 64.616 27.447 65.38 28.527 66.919 28.583 C 68.531 28.637 69.306 27.432 69.993 26.366 C 70.607 25.413 71.137 24.591 72.149 24.556 C 73.08 24.521 73.587 25.256 74.302 26.468 C 74.976 27.609 75.739 28.902 77.308 28.959 C 78.931 29.015 79.715 27.598 80.398 26.343 C 80.99 25.258 81.548 24.234 82.538 24.2 C 83.469 24.178 83.955 25.029 84.673 26.449 C 85.344 27.775 86.105 29.277 87.699 29.335 L 87.787 29.335 C 89.379 29.335 90.134 27.735 90.802 26.325 C 91.394 25.073 91.954 23.894 92.915 23.846 L 92.925 22.807 Z" fill-rule="evenodd"/>
    <path id="Path_50" data-name="Path 50" d="M83,163.779h20.779V143H83Z" transform="translate(-41.443 -77.665)" fill="#3ecc5f" fill-rule="evenodd"/>
    <g id="Group_8" data-name="Group 8" transform="matrix(0.966, -0.259, 0.259, 0.966, 51.971, 43.3)">
      <rect id="rect-1" data-name="Rectangle 3" width="43.906" height="17.333" rx="2" transform="translate(0 0)" fill="#d8d8d8"/>
      <g id="Group_2" data-name="Group 2" transform="translate(0.728 10.948)">
        <rect id="rect-2" data-name="Rectangle 4" width="2.537" height="2.537" rx="1" transform="translate(7.985 0)" fill="#4a4a4a"/>
        <rect id="rect-3" data-name="Rectangle 5" width="2.537" height="2.537" rx="1" transform="translate(10.991 0)" fill="#4a4a4a"/>
        <rect id="rect-4" data-name="Rectangle 6" width="2.537" height="2.537" rx="1" transform="translate(13.997 0)" fill="#4a4a4a"/>
        <rect id="rect-5" data-name="Rectangle 7" width="2.537" height="2.537" rx="1" transform="translate(17.003 0)" fill="#4a4a4a"/>
        <rect id="rect-6" data-name="Rectangle 8" width="2.537" height="2.537" rx="1" transform="translate(20.009 0)" fill="#4a4a4a"/>
        <rect id="rect-7" data-name="Rectangle 9" width="2.537" height="2.537" rx="1" transform="translate(23.015 0)" fill="#4a4a4a"/>
        <rect id="rect-8" data-name="Rectangle 10" width="2.537" height="2.537" rx="1" transform="translate(26.021 0)" fill="#4a4a4a"/>
        <rect id="rect-9" data-name="Rectangle 11" width="2.537" height="2.537" rx="1" transform="translate(29.028 0)" fill="#4a4a4a"/>
        <rect id="rect-10" data-name="Rectangle 12" width="2.537" height="2.537" rx="1" transform="translate(32.034 0)" fill="#4a4a4a"/>
        <path id="path-1" data-name="Path 51" d="M.519,0H6.9A.519.519,0,0,1,7.421.52v1.5a.519.519,0,0,1-.519.519H.519A.519.519,0,0,1,0,2.017V.519A.519.519,0,0,1,.519,0ZM35.653,0h6.383a.519.519,0,0,1,.519.519v1.5a.519.519,0,0,1-.519.519H35.652a.519.519,0,0,1-.519-.519V.519A.519.519,0,0,1,35.652,0Z" transform="translate(0 0)" fill="#4a4a4a" fill-rule="evenodd"/>
      </g>
      <g id="Group_3" data-name="Group 3" transform="translate(0.728 4.878)">
        <path id="path-2" data-name="Path 52" d="M.519,0H2.956a.519.519,0,0,1,.519.519v1.5a.519.519,0,0,1-.519.519H.519A.519.519,0,0,1,0,2.017V.519A.519.519,0,0,1,.519,0Z" transform="translate(0 0)" fill="#4a4a4a" fill-rule="evenodd"/>
        <rect id="rect-11" data-name="Rectangle 13" width="2.537" height="2.537" rx="1" transform="translate(3.945 0)" fill="#4a4a4a"/>
        <rect id="rect-12" data-name="Rectangle 14" width="2.537" height="2.537" rx="1" transform="translate(6.951 0)" fill="#4a4a4a"/>
        <rect id="rect-13" data-name="Rectangle 15" width="2.537" height="2.537" rx="1" transform="translate(9.958 0)" fill="#4a4a4a"/>
        <rect id="rect-14" data-name="Rectangle 16" width="2.537" height="2.537" rx="1" transform="translate(12.964 0)" fill="#4a4a4a"/>
        <rect id="rect-15" data-name="Rectangle 17" width="2.537" height="2.537" rx="1" transform="translate(15.97 0)" fill="#4a4a4a"/>
        <rect id="rect-16" data-name="Rectangle 18" width="2.537" height="2.537" rx="1" transform="translate(18.976 0)" fill="#4a4a4a"/>
        <rect id="rect-17" data-name="Rectangle 19" width="2.537" height="2.537" rx="1" transform="translate(21.982 0)" fill="#4a4a4a"/>
        <rect id="rect-18" data-name="Rectangle 20" width="2.537" height="2.537" rx="1" transform="translate(24.988 0)" fill="#4a4a4a"/>
        <rect id="rect-19" data-name="Rectangle 21" width="2.537" height="2.537" rx="1" transform="translate(27.994 0)" fill="#4a4a4a"/>
        <rect id="rect-20" data-name="Rectangle 22" width="2.537" height="2.537" rx="1" transform="translate(31 0)" fill="#4a4a4a"/>
        <rect id="rect-21" data-name="Rectangle 23" width="2.537" height="2.537" rx="1" transform="translate(34.006 0)" fill="#4a4a4a"/>
        <rect id="rect-22" data-name="Rectangle 24" width="2.537" height="2.537" rx="1" transform="translate(37.012 0)" fill="#4a4a4a"/>
        <rect id="rect-23" data-name="Rectangle 25" width="2.537" height="2.537" rx="1" transform="translate(40.018 0)" fill="#4a4a4a"/>
      </g>
      <g id="Group_4" data-name="Group 4" transform="translate(43.283 4.538) rotate(180)">
        <path id="path-3" data-name="Path 53" d="M.519,0H2.956a.519.519,0,0,1,.519.519v1.5a.519.519,0,0,1-.519.519H.519A.519.519,0,0,1,0,2.017V.519A.519.519,0,0,1,.519,0Z" transform="translate(0 0)" fill="#4a4a4a" fill-rule="evenodd"/>
        <rect id="rect-24" data-name="Rectangle 26" width="2.537" height="2.537" rx="1" transform="translate(3.945 0)" fill="#4a4a4a"/>
        <rect id="rect-25" data-name="Rectangle 27" width="2.537" height="2.537" rx="1" transform="translate(6.951 0)" fill="#4a4a4a"/>
        <rect id="rect-26" data-name="Rectangle 28" width="2.537" height="2.537" rx="1" transform="translate(9.958 0)" fill="#4a4a4a"/>
        <rect id="rect-27" data-name="Rectangle 29" width="2.537" height="2.537" rx="1" transform="translate(12.964 0)" fill="#4a4a4a"/>
        <rect id="rect-28" data-name="Rectangle 30" width="2.537" height="2.537" rx="1" transform="translate(15.97 0)" fill="#4a4a4a"/>
        <rect id="rect-29" data-name="Rectangle 31" width="2.537" height="2.537" rx="1" transform="translate(18.976 0)" fill="#4a4a4a"/>
        <rect id="rect-30" data-name="Rectangle 32" width="2.537" height="2.537" rx="1" transform="translate(21.982 0)" fill="#4a4a4a"/>
        <rect id="rect-31" data-name="Rectangle 33" width="2.537" height="2.537" rx="1" transform="translate(24.988 0)" fill="#4a4a4a"/>
        <rect id="rect-32" data-name="Rectangle 34" width="2.537" height="2.537" rx="1" transform="translate(27.994 0)" fill="#4a4a4a"/>
        <rect id="rect-33" data-name="Rectangle 35" width="2.537" height="2.537" rx="1" transform="translate(31.001 0)" fill="#4a4a4a"/>
        <rect id="rect-34" data-name="Rectangle 36" width="2.537" height="2.537" rx="1" transform="translate(34.007 0)" fill="#4a4a4a"/>
        <rect id="rect-35" data-name="Rectangle 37" width="2.537" height="2.537" rx="1" transform="translate(37.013 0)" fill="#4a4a4a"/>
        <rect id="rect-36" data-name="Rectangle 38" width="2.537" height="2.537" rx="1" transform="translate(40.018 0)" fill="#4a4a4a"/>
        <rect id="rect-37" data-name="Rectangle 39" width="2.537" height="2.537" rx="1" transform="translate(3.945 0)" fill="#4a4a4a"/>
        <rect id="rect-38" data-name="Rectangle 40" width="2.537" height="2.537" rx="1" transform="translate(6.951 0)" fill="#4a4a4a"/>
        <rect id="rect-39" data-name="Rectangle 41" width="2.537" height="2.537" rx="1" transform="translate(9.958 0)" fill="#4a4a4a"/>
        <rect id="rect-40" data-name="Rectangle 42" width="2.537" height="2.537" rx="1" transform="translate(12.964 0)" fill="#4a4a4a"/>
        <rect id="rect-41" data-name="Rectangle 43" width="2.537" height="2.537" rx="1" transform="translate(15.97 0)" fill="#4a4a4a"/>
        <rect id="rect-42" data-name="Rectangle 44" width="2.537" height="2.537" rx="1" transform="translate(18.976 0)" fill="#4a4a4a"/>
        <rect id="rect-43" data-name="Rectangle 45" width="2.537" height="2.537" rx="1" transform="translate(21.982 0)" fill="#4a4a4a"/>
        <rect id="rect-44" data-name="Rectangle 46" width="2.537" height="2.537" rx="1" transform="translate(24.988 0)" fill="#4a4a4a"/>
        <rect id="rect-45" data-name="Rectangle 47" width="2.537" height="2.537" rx="1" transform="translate(27.994 0)" fill="#4a4a4a"/>
        <rect id="rect-46" data-name="Rectangle 48" width="2.537" height="2.537" rx="1" transform="translate(31.001 0)" fill="#4a4a4a"/>
        <rect id="rect-47" data-name="Rectangle 49" width="2.537" height="2.537" rx="1" transform="translate(34.007 0)" fill="#4a4a4a"/>
        <rect id="rect-48" data-name="Rectangle 50" width="2.537" height="2.537" rx="1" transform="translate(37.013 0)" fill="#4a4a4a"/>
        <rect id="rect-49" data-name="Rectangle 51" width="2.537" height="2.537" rx="1" transform="translate(40.018 0)" fill="#4a4a4a"/>
      </g>
      <g id="Group_6" data-name="Group 6" transform="translate(0.728 7.883)">
        <path id="path-4" data-name="Path 54" d="M.519,0h3.47a.519.519,0,0,1,.519.519v1.5a.519.519,0,0,1-.519.519H.519A.519.519,0,0,1,0,2.017V.52A.519.519,0,0,1,.519,0Z" transform="translate(0 0)" fill="#4a4a4a" fill-rule="evenodd"/>
        <g id="Group_5" data-name="Group 5" transform="translate(5.073 0)">
          <rect id="rect-50" data-name="Rectangle 52" width="2.537" height="2.537" rx="1" transform="translate(0 0)" fill="#4a4a4a"/>
          <rect id="rect-51" data-name="Rectangle 53" width="2.537" height="2.537" rx="1" transform="translate(3.006 0)" fill="#4a4a4a"/>
          <rect id="rect-52" data-name="Rectangle 54" width="2.537" height="2.537" rx="1" transform="translate(6.012 0)" fill="#4a4a4a"/>
          <rect id="rect-53" data-name="Rectangle 55" width="2.537" height="2.537" rx="1" transform="translate(9.018 0)" fill="#4a4a4a"/>
          <rect id="rect-54" data-name="Rectangle 56" width="2.537" height="2.537" rx="1" transform="translate(12.025 0)" fill="#4a4a4a"/>
          <rect id="rect-55" data-name="Rectangle 57" width="2.537" height="2.537" rx="1" transform="translate(15.031 0)" fill="#4a4a4a"/>
          <rect id="rect-56" data-name="Rectangle 58" width="2.537" height="2.537" rx="1" transform="translate(18.037 0)" fill="#4a4a4a"/>
          <rect id="rect-57" data-name="Rectangle 59" width="2.537" height="2.537" rx="1" transform="translate(21.042 0)" fill="#4a4a4a"/>
          <rect id="rect-58" data-name="Rectangle 60" width="2.537" height="2.537" rx="1" transform="translate(24.049 0)" fill="#4a4a4a"/>
          <rect id="rect-59" data-name="Rectangle 61" width="2.537" height="2.537" rx="1" transform="translate(27.055 0)" fill="#4a4a4a"/>
          <rect id="rect-60" data-name="Rectangle 62" width="2.537" height="2.537" rx="1" transform="translate(30.061 0)" fill="#4a4a4a"/>
        </g>
        <path id="path-5" data-name="Path 55" d="M.52,0H3.8a.519.519,0,0,1,.519.519v1.5a.519.519,0,0,1-.519.519H.519A.519.519,0,0,1,0,2.017V.52A.519.519,0,0,1,.519,0Z" transform="translate(38.234 0)" fill="#4a4a4a" fill-rule="evenodd"/>
      </g>
      <g id="Group_7" data-name="Group 7" transform="translate(0.728 14.084)">
        <rect id="rect-61" data-name="Rectangle 63" width="2.537" height="2.537" rx="1" transform="translate(0 0)" fill="#4a4a4a"/>
        <rect id="rect-62" data-name="Rectangle 64" width="2.537" height="2.537" rx="1" transform="translate(3.006 0)" fill="#4a4a4a"/>
        <rect id="rect-63" data-name="Rectangle 65" width="2.537" height="2.537" rx="1" transform="translate(6.012 0)" fill="#4a4a4a"/>
        <rect id="rect-64" data-name="Rectangle 66" width="2.537" height="2.537" rx="1" transform="translate(9.018 0)" fill="#4a4a4a"/>
        <path id="path-6" data-name="Path 56" d="M.519,0H14.981A.519.519,0,0,1,15.5.519v1.5a.519.519,0,0,1-.519.519H.519A.519.519,0,0,1,0,2.018V.519A.519.519,0,0,1,.519,0Zm15.97,0h1.874a.519.519,0,0,1,.519.519v1.5a.519.519,0,0,1-.519.519H16.489a.519.519,0,0,1-.519-.519V.519A.519.519,0,0,1,16.489,0Z" transform="translate(12.024 0)" fill="#4a4a4a" fill-rule="evenodd"/>
        <rect id="rect-65" data-name="Rectangle 67" width="2.537" height="2.537" rx="1" transform="translate(31.376 0)" fill="#4a4a4a"/>
        <rect id="rect-66" data-name="Rectangle 68" width="2.537" height="2.537" rx="1" transform="translate(34.382 0)" fill="#4a4a4a"/>
        <rect id="rect-67" data-name="Rectangle 69" width="2.537" height="2.537" rx="1" transform="translate(40.018 0)" fill="#4a4a4a"/>
        <path id="path-7" data-name="Path 57" d="M2.537,0V.561a.519.519,0,0,1-.519.519H.519A.519.519,0,0,1,0,.561V0Z" transform="translate(39.736 1.08) rotate(180)" fill="#4a4a4a"/>
        <path id="Path_58" data-name="Path 58" d="M2.537,0V.561a.519.519,0,0,1-.519.519H.519A.519.519,0,0,1,0,.561V0Z" transform="translate(37.2 1.456)" fill="#4a4a4a"/>
      </g>
      <rect id="rect-68" data-name="Rectangle 70" width="42.273" height="1.127" rx="0.564" transform="translate(0.915 0.556)" fill="#4a4a4a"/>
      <rect id="rect-69" data-name="Rectangle 71" width="2.37" height="0.752" rx="0.376" transform="translate(1.949 0.744)" fill="#d8d8d8" opacity="0.136"/>
      <rect id="rect-70" data-name="Rectangle 72" width="2.37" height="0.752" rx="0.376" transform="translate(5.193 0.744)" fill="#d8d8d8" opacity="0.136"/>
      <rect id="rect-71" data-name="Rectangle 73" width="2.37" height="0.752" rx="0.376" transform="translate(7.688 0.744)" fill="#d8d8d8" opacity="0.136"/>
      <rect id="rect-72" data-name="Rectangle 74" width="2.37" height="0.752" rx="0.376" transform="translate(10.183 0.744)" fill="#d8d8d8" opacity="0.136"/>
      <rect id="rect-73" data-name="Rectangle 75" width="2.37" height="0.752" rx="0.376" transform="translate(12.679 0.744)" fill="#d8d8d8" opacity="0.136"/>
      <rect id="rect-74" data-name="Rectangle 76" width="2.37" height="0.752" rx="0.376" transform="translate(15.797 0.744)" fill="#d8d8d8" opacity="0.136"/>
      <rect id="rect-75" data-name="Rectangle 77" width="2.37" height="0.752" rx="0.376" transform="translate(18.292 0.744)" fill="#d8d8d8" opacity="0.136"/>
      <rect id="rect-76" data-name="Rectangle 78" width="2.37" height="0.752" rx="0.376" transform="translate(20.788 0.744)" fill="#d8d8d8" opacity="0.136"/>
      <rect id="rect-77" data-name="Rectangle 79" width="2.37" height="0.752" rx="0.376" transform="translate(23.283 0.744)" fill="#d8d8d8" opacity="0.136"/>
      <rect id="rect-78" data-name="Rectangle 80" width="2.37" height="0.752" rx="0.376" transform="translate(26.402 0.744)" fill="#d8d8d8" opacity="0.136"/>
      <rect id="rect-79" data-name="Rectangle 81" width="2.37" height="0.752" rx="0.376" transform="translate(28.897 0.744)" fill="#d8d8d8" opacity="0.136"/>
      <rect id="rect-80" data-name="Rectangle 82" width="2.37" height="0.752" rx="0.376" transform="translate(31.393 0.744)" fill="#d8d8d8" opacity="0.136"/>
      <rect id="rect-81" data-name="Rectangle 83" width="2.37" height="0.752" rx="0.376" transform="translate(34.512 0.744)" fill="#d8d8d8" opacity="0.136"/>
      <rect id="rect-82" data-name="Rectangle 84" width="2.37" height="0.752" rx="0.376" transform="translate(37.007 0.744)" fill="#d8d8d8" opacity="0.136"/>
      <rect id="rect-83" data-name="Rectangle 85" width="2.37" height="0.752" rx="0.376" transform="translate(39.502 0.744)" fill="#d8d8d8" opacity="0.136"/>
    </g>
    <path id="Path_59" data-name="Path 59" d="M123.779,148.389a2.583,2.583,0,0,0-.332.033c-.02-.078-.038-.156-.06-.234a2.594,2.594,0,1,0-2.567-4.455q-.086-.088-.174-.175a2.593,2.593,0,1,0-4.461-2.569c-.077-.022-.154-.04-.231-.06a2.6,2.6,0,1,0-5.128,0c-.077.02-.154.038-.231.06a2.594,2.594,0,1,0-4.461,2.569,10.384,10.384,0,1,0,17.314,9.992,2.592,2.592,0,1,0,.332-5.161" transform="translate(-51.054 -75.262)" fill="#44d860" fill-rule="evenodd"/>
    <path id="Path_60" data-name="Path 60" d="M83,113.389h20.779V103H83Z" transform="translate(-41.443 -58.444)" fill="#3ecc5f" fill-rule="evenodd"/>
    <path id="Path_61" data-name="Path 61" d="M123.389,108.944a1.3,1.3,0,1,0,0-2.6,1.338,1.338,0,0,0-.166.017c-.01-.039-.019-.078-.03-.117a1.3,1.3,0,0,0-.5-2.5,1.285,1.285,0,0,0-.783.269q-.043-.044-.087-.087a1.285,1.285,0,0,0,.263-.776,1.3,1.3,0,0,0-2.493-.509,5.195,5.195,0,1,0,0,10,1.3,1.3,0,0,0,2.493-.509,1.285,1.285,0,0,0-.263-.776q.044-.043.087-.087a1.285,1.285,0,0,0,.783.269,1.3,1.3,0,0,0,.5-2.5c.011-.038.02-.078.03-.117a1.335,1.335,0,0,0,.166.017" transform="translate(-55.859 -57.894)" fill="#44d860" fill-rule="evenodd"/>
    <path id="Path_62" data-name="Path 62" d="M141.8,38.745a1.41,1.41,0,0,1-.255-.026,1.309,1.309,0,0,1-.244-.073,1.349,1.349,0,0,1-.224-.119,1.967,1.967,0,0,1-.2-.161,1.52,1.52,0,0,1-.161-.2,1.282,1.282,0,0,1-.218-.722,1.41,1.41,0,0,1,.026-.255,1.5,1.5,0,0,1,.072-.244,1.364,1.364,0,0,1,.12-.223,1.252,1.252,0,0,1,.358-.358,1.349,1.349,0,0,1,.224-.119,1.309,1.309,0,0,1,.244-.073,1.2,1.2,0,0,1,.509,0,1.262,1.262,0,0,1,.468.192,1.968,1.968,0,0,1,.2.161,1.908,1.908,0,0,1,.161.2,1.322,1.322,0,0,1,.12.223,1.361,1.361,0,0,1,.1.5,1.317,1.317,0,0,1-.379.919,1.968,1.968,0,0,1-.2.161,1.346,1.346,0,0,1-.223.119,1.332,1.332,0,0,1-.5.1m10.389-.649a1.326,1.326,0,0,1-.92-.379,1.979,1.979,0,0,1-.161-.2,1.282,1.282,0,0,1-.218-.722,1.326,1.326,0,0,1,.379-.919,1.967,1.967,0,0,1,.2-.161,1.351,1.351,0,0,1,.224-.119,1.308,1.308,0,0,1,.244-.073,1.2,1.2,0,0,1,.509,0,1.262,1.262,0,0,1,.468.192,1.967,1.967,0,0,1,.2.161,1.326,1.326,0,0,1,.379.919,1.461,1.461,0,0,1-.026.255,1.323,1.323,0,0,1-.073.244,1.847,1.847,0,0,1-.119.223,1.911,1.911,0,0,1-.161.2,1.967,1.967,0,0,1-.2.161,1.294,1.294,0,0,1-.722.218" transform="translate(-69.074 -26.006)" fill-rule="evenodd"/>
  </g>
  <g id="group-1" transform="matrix(0.087494447827, -0.000973985181, 0.000190734456, 0.087496839464, -23.707865075773, 92.65490753822)" style="transform-origin: 200px 200px;">
    <g id="group-2">
      <path id="path-8" class="st0" d="M304.8,0H95.2C42.6,0,0,42.6,0,95.2v209.6C0,357.4,42.6,400,95.2,400h209.6 c52.6,0,95.2-42.6,95.2-95.2V95.2C400,42.6,357.4,0,304.8,0z M106.3,375C61.4,375,25,338.6,25,293.8c0-44.9,36.4-81.3,81.3-81.3 c44.9,0,81.3,36.4,81.3,81.3C187.5,338.6,151.1,375,106.3,375z M293.8,375c-44.9,0-81.3-36.4-81.3-81.3 c0-44.9,36.4-81.3,81.3-81.3c44.9,0,81.3,36.4,81.3,81.3C375,338.6,338.6,375,293.8,375z"/>
    </g>
    <g id="group-3" class="st2">
      <path id="path-9" class="st3" d="M304.8,0H95.2C42.6,0,0,42.6,0,95.2v209.6C0,357.4,42.6,400,95.2,400h209.6 c52.6,0,95.2-42.6,95.2-95.2V95.2C400,42.6,357.4,0,304.8,0z M106.3,375C61.4,375,25,338.6,25,293.8c0-44.9,36.4-81.3,81.3-81.3 c44.9,0,81.3,36.4,81.3,81.3C187.5,338.6,151.1,375,106.3,375z M293.8,375c-44.9,0-81.3-36.4-81.3-81.3 c0-44.9,36.4-81.3,81.3-81.3c44.9,0,81.3,36.4,81.3,81.3C375,338.6,338.6,375,293.8,375z" style="transform-box: fill-box; transform-origin: 50% 50%;"/>
    </g>
  </g>
  <path id="Path_318" data-name="Path 318" d="M 456.745 373.09 C 468.255 370.96 480.445 367.09 491.275 371.55 C 494.125 372.72 496.745 374.43 499.665 375.41 C 502.585 376.39 505.785 376.63 508.825 377.32 C 519.505 379.74 528.165 387.87 533.725 397.32 C 539.285 406.77 542.165 417.46 544.985 428.04 L 551.885 453.87 C 557.885 476.32 563.885 498.96 565.275 522.17 C 481.742 526.952 398.018 527.429 314.435 523.6 C 319.875 513.26 325.435 502.29 324.975 490.6 C 324.515 478.91 317.785 467.38 320.215 455.86 C 321.765 448.52 326.785 442.47 329.855 435.64 C 338.605 416.12 331.795 389.85 347.175 374.99 C 354.095 368.31 364.175 365.78 373.805 366.1 C 386.085 366.51 398.655 370.34 410.805 372.21 C 426.365 374.57 441.065 375.97 456.745 373.09 Z" fill="#ff6584" transform="matrix(0.3442859947681427, 0, 0, 0.3442859947681427, 78.78021746006766, 157.03283561782996)"/>
  <path id="Path_319" data-name="Path 319" d="M 581.835 484.26 L 581.735 485.69 L 581.735 485.79 L 581.565 488.09 L 580.235 506.6 L 578.625 528.9 L 578.165 535.18 L 577.165 548.62 L 577.165 548.79 L 470.165 549.79 L 294.575 551.69 L 294.575 552.53 L 294.435 552.53 L 294.435 551.41 L 294.885 537.05 L 295.745 508.99 L 296.485 485.2 L 296.555 482.83 C 296.74 476.792 301.956 472.147 307.975 472.66 C 312.695 473.06 318.825 473.55 326.155 474.07 L 329.155 474.29 C 371.485 477.23 449.715 481.03 528.655 476.29 C 530.315 476.2 531.985 476.1 533.655 475.98 C 545.895 475.21 558.125 474.22 570.235 472.98 C 576.755 472.297 582.307 477.672 581.835 484.21 L 581.835 484.26 Z" opacity="0.1" transform="matrix(0.3442859947681427, 0, 0, 0.3442859947681427, 78.78021746006766, 157.03283561782996)"/>
  <path id="Path_320" data-name="Path 320" d="M 297.45 552.53 L 297.45 551.69 L 473.07 549.78 L 580.07 548.78 L 580.37 548.78 L 580.37 548.61 L 581.37 535.17 L 581.8 529.17 L 583.44 506.56 L 584.73 488.66 L 584.73 488.22 C 584.79 487.395 584.753 486.566 584.62 485.75 C 584.626 485.717 584.626 485.683 584.62 485.65 C 584.346 483.962 583.659 482.369 582.62 481.01 C 580.382 478.139 576.821 476.627 573.2 477.01 C 561.09 478.25 548.86 479.24 536.62 480.01 C 534.95 480.13 533.28 480.23 531.62 480.32 C 452.68 485.01 374.45 481.21 332.12 478.32 L 329.12 478.1 C 321.79 477.58 315.66 477.1 310.94 476.69 C 305.562 476.236 300.711 479.918 299.7 485.22 C 299.599 485.761 299.539 486.31 299.52 486.86 L 298.84 509.02 L 297.91 537.09 L 297.47 551.45 L 297.47 552.57 L 297.45 552.53 Z" fill="#3f3d56" transform="matrix(0.3442859947681427, 0, 0, 0.3442859947681427, 78.78021746006766, 157.03283561782996)"/>
  <path id="Path_321" data-name="Path 321" d="M 585.04 491.27 L 583.81 506.6 L 581.98 529.45 L 581.52 535.17 L 580.52 547.98 L 580.46 548.62 L 580.46 548.79 L 580.31 550.27 L 580.42 548.79 L 580.13 548.79 L 473.13 549.79 L 297.48 551.69 L 297.48 551.41 L 297.97 537.05 L 298.97 508.99 L 299.61 490.34 C 299.674 488.184 300.826 486.208 302.67 485.09 C 303.803 484.396 305.127 484.081 306.45 484.19 C 308.55 484.36 311.13 484.56 314.14 484.78 C 319.03 485.14 325.06 485.56 332.08 486 C 345.08 486.82 361.39 487.7 380.08 488.42 C 432.08 490.42 502.28 491.09 568.96 485.25 C 571.96 484.99 575.06 484.7 578.09 484.41 C 579.29 484.29 580.498 484.52 581.57 485.07 C 581.874 485.221 582.162 485.402 582.43 485.61 C 583.301 486.241 583.991 487.089 584.43 488.07 C 584.532 488.265 584.616 488.469 584.68 488.68 C 584.981 489.509 585.104 490.391 585.04 491.27 Z" opacity="0.1" transform="matrix(0.3442859947681427, 0, 0, 0.3442859947681427, 78.78021746006766, 157.03283561782996)"/>
  <path id="Path_322" data-name="Path 322" d="M377.44,677.87v3.19a6.13,6.13,0,0,1-3.5,5.54l-40.1.77a6.12,6.12,0,0,1-3.57-5.57v-3Z" transform="matrix(0.3442859947681427, 0, 0, 0.3442859947681427, 51.46456789597616, 97.50234300165744)" opacity="0.1"/>
  <path id="Path_323" data-name="Path 323" d="M298.59,515.57l-52.25,1V507.9l52.25-1Z" fill="#3f3d56" transform="matrix(0.3442859947681427, 0, 0, 0.3442859947681427, 78.78021746006766, 157.03283561782996)"/>
  <path id="Path_324" data-name="Path 324" d="M298.59,515.57l-52.25,1V507.9l52.25-1Z" opacity="0.1" transform="matrix(0.3442859947681427, 0, 0, 0.3442859947681427, 78.78021746006766, 157.03283561782996)"/>
  <path id="Path_325" data-name="Path 325" d="M300.59,515.57l-52.25,1V507.9l52.25-1Z" fill="#3f3d56" transform="matrix(0.3442859947681427, 0, 0, 0.3442859947681427, 78.78021746006766, 157.03283561782996)"/>
  <path id="Path_326" data-name="Path 326" d="M758.56,679.87v3.19a6.13,6.13,0,0,0,3.5,5.54l40.1.77a6.12,6.12,0,0,0,3.57-5.57v-3Z" transform="matrix(0.3442859947681427, 0, 0, 0.3442859947681427, 51.46456789597616, 97.50234300165744)" opacity="0.1"/>
  <path id="Path_327" data-name="Path 327" d="M678.72,517.57l52.25,1V509.9l-52.25-1Z" opacity="0.1" transform="matrix(0.3442859947681427, 0, 0, 0.3442859947681427, 78.78021746006766, 157.03283561782996)"/>
  <path id="Path_328" data-name="Path 328" d="M676.72,517.57l52.25,1V509.9l-52.25-1Z" fill="#3f3d56" transform="matrix(0.3442859947681427, 0, 0, 0.3442859947681427, 78.78021746006766, 157.03283561782996)"/>
  <path id="Path_329" data-name="Path 329" d="M 399.595 313.88 C 399.675 320.88 396.435 327.48 393.685 333.95 C 383.673 357.518 379.336 383.109 381.025 408.66 C 381.755 419.66 383.605 430.66 381.755 441.56 C 379.905 452.46 373.325 463.33 362.755 466.46 C 380.285 476.91 404.015 475.81 420.515 463.8 C 429.305 457.4 435.855 448.47 442.265 439.69 C 441.504 455.462 436.937 470.816 428.955 484.44 C 458.134 481.857 484.848 467.022 502.465 443.62 C 506.775 437.81 510.525 431.43 512.185 424.39 C 515.275 411.39 510.965 397.88 507.675 384.89 C 504.926 374.031 502.865 363.009 501.505 351.89 C 501.075 348.33 500.725 344.67 501.605 341.19 C 502.605 337.12 505.275 333.68 507.245 329.97 C 512.845 319.43 512.975 306.67 510.105 295.09 C 507.235 283.51 501.615 272.83 496.045 262.28 C 491.585 253.82 486.745 244.97 478.585 240 C 473.485 236.9 467.585 235.61 461.705 234.36 L 436.335 228.93 C 430.785 227.74 425.075 226.55 419.465 227.42 C 409.995 228.9 403.325 235.74 397.465 242.76 C 392.875 248.22 381.655 258.47 380.865 265.62 C 380.145 272.21 385.965 283.25 386.955 290.2 C 388.255 299.2 389.175 296.2 394.255 301.72 C 397.465 305.14 399.535 309.09 399.595 313.88 Z" style="fill: rgb(65, 63, 86);" transform="matrix(0.3442859947681427, 0, 0, 0.3442859947681427, 78.78021746006766, 157.03283561782996)"/>
</svg>