<?xml version="1.0" encoding="utf-8"?>
<svg xmlns="http://www.w3.org/2000/svg" viewBox="60.469 139.242 399.3956 234.515" width="399.396px" height="234.515px">
  <circle cx="174.013" cy="252.786" r="113.544" fill="#f2f2f2" style="" transform="matrix(1, 0, 0, 1, 0, 1.4210854715202004e-14)"/>
  <ellipse cx="258.198" cy="364.03" rx="181.811" ry="9.727" fill="#3f3d56" style="" transform="matrix(1, 0, 0, 1, 0, 1.4210854715202004e-14)"/>
  <ellipse cx="257.844" cy="361.023" rx="162.71" ry="7.782" opacity="0.2" style="" transform="matrix(1, 0, 0, 1, 0, 1.4210854715202004e-14)"/>
  <rect x="106.807" y="193.184" width="297.123" height="17.686" fill="#3f3d56" style="" transform="matrix(1, 0, 0, 1, 0, 1.4210854715202004e-14)"/>
  <path d="M 106.807 354.596 C 106.807 358.829 110.238 362.261 114.472 362.261 L 396.264 362.261 C 400.498 362.261 403.93 358.829 403.93 354.596 L 403.93 202.027 L 106.807 202.027 L 106.807 354.596 Z" fill="#3f3d56" style="" transform="matrix(1, 0, 0, 1, 0, 1.4210854715202004e-14)"/>
  <path d="M 396.264 180.804 L 114.472 180.804 C 110.238 180.804 106.807 184.236 106.807 188.469 L 106.807 202.027 L 403.93 202.027 L 403.93 188.469 C 403.93 184.236 400.498 180.804 396.264 180.804 Z" fill="#3f3d56" style="" transform="matrix(1, 0, 0, 1, 0, 1.4210854715202004e-14)"/>
  <path d="M 396.264 180.804 L 114.472 180.804 C 110.238 180.804 106.807 184.236 106.807 188.469 L 106.807 202.027 L 403.93 202.027 L 403.93 188.469 C 403.93 184.236 400.498 180.804 396.264 180.804 Z" opacity="0.2" style="" transform="matrix(1, 0, 0, 1, 0, 1.4210854715202004e-14)"/>
  <circle cx="124.493" cy="191.415" r="4.599" style="fill: rgb(183, 64, 64);" transform="matrix(1, 0, 0, 1, 0, 1.4210854715202004e-14)"/>
  <circle cx="137.226" cy="191.415" r="4.599" style="fill: rgb(230, 223, 120);" transform="matrix(1, 0, 0, 1, 0, 1.4210854715202004e-14)"/>
  <circle cx="149.96" cy="191.415" r="4.599" style="fill: rgb(64, 178, 65);" transform="matrix(1, 0, 0, 1, 0, 1.4210854715202004e-14)"/>
  <rect x="119.894" y="214.761" width="119.203" height="136.535" rx="5.335" fill="#606060" style="" transform="matrix(1, 0, 0, 1, 0, 1.4210854715202004e-14)"/>
  <rect x="273.761" y="235.63" width="100.456" height="7.782" rx="5.476" style="fill: rgba(0, 70, 67, 0.592);" transform="matrix(1, 0, 0, 1, 0, 1.4210854715202004e-14)"/>
  <rect x="250.416" y="263.927" width="147.147" height="5.306" rx="5.476" style="fill: rgba(0, 70, 67, 0.247);" transform="matrix(1, 0, 0, 1, 0, 1.4210854715202004e-14)"/>
  <rect x="250.416" y="279.491" width="147.147" height="5.306" rx="5.476" style="fill: rgba(0, 70, 67, 0.247);" transform="matrix(1, 0, 0, 1, 0, 1.4210854715202004e-14)"/>
  <rect x="250.416" y="295.055" width="147.147" height="5.306" rx="5.476" style="fill: rgba(0, 70, 67, 0.247);" transform="matrix(1, 0, 0, 1, 0, 1.4210854715202004e-14)"/>
  <rect x="250.416" y="310.619" width="147.147" height="5.306" rx="5.476" style="fill: rgba(0, 70, 67, 0.247);" transform="matrix(1, 0, 0, 1, 0, 1.4210854715202004e-14)"/>
  <rect x="366.436" y="334.671" width="31.127" height="9.196" rx="7.028" style="fill: rgb(17, 91, 88);" transform="matrix(1, 0, 0, 1, 0, 1.4210854715202004e-14)"/>
  <path d="M 432.971 318.264 C 433.912 316.622 434.398 314.758 434.38 312.864 C 434.38 307.985 431.358 304.028 427.63 304.028 C 423.902 304.028 420.88 307.985 420.88 312.864 C 420.862 314.758 421.348 316.622 422.289 318.264 C 420.411 321.62 420.411 325.709 422.289 329.064 C 420.411 332.419 420.411 336.509 422.289 339.864 C 420.411 343.219 420.411 347.309 422.289 350.664 C 421.348 352.306 420.862 354.17 420.88 356.064 C 420.88 360.943 423.902 364.9 427.63 364.9 C 431.358 364.9 434.38 360.943 434.38 356.064 C 434.398 354.17 433.912 352.306 432.971 350.664 C 434.849 347.309 434.849 343.219 432.971 339.864 C 434.849 336.509 434.849 332.419 432.971 329.064 C 434.849 325.709 434.849 321.62 432.971 318.264 Z" fill="#3f3d56" style="" transform="matrix(1, 0, 0, 1, 0, 1.4210854715202004e-14)"/>
  <ellipse cx="427.63" cy="302.065" rx="6.75" ry="8.837" fill="#3f3d56" style="" transform="matrix(1, 0, 0, 1, 0, 1.4210854715202004e-14)"/>
  <ellipse cx="427.63" cy="291.265" rx="6.75" ry="8.837" fill="#3f3d56" style="" transform="matrix(1, 0, 0, 1, 0, 1.4210854715202004e-14)"/>
  <path d="M 452.897 217.359 C 453.82 216.185 454.66 214.949 455.412 213.658 L 437.676 210.746 L 456.858 210.889 C 460.576 202.797 460.8 193.531 457.475 185.27 L 431.741 198.62 L 455.473 181.174 C 443.006 159.63 411.893 159.662 399.469 181.23 C 392.877 192.675 393.908 206.978 402.072 217.359 C 400.635 219.186 399.399 221.163 398.386 223.256 L 421.407 235.216 L 396.859 226.977 C 393.358 237.329 395.318 248.749 402.072 257.339 C 386.685 276.902 398.246 305.786 422.881 309.33 C 447.517 312.875 466.751 288.421 457.502 265.314 C 456.356 262.45 454.805 259.765 452.897 257.339 C 462.123 245.609 462.123 229.09 452.897 217.359 Z" fill="#3ecc5f" fill-rule="evenodd" style="" transform="matrix(1, 0, 0, 1, 0, 1.4210854715202004e-14)"/>
  <path d="M 395.154 237.35 C 395.142 244.602 397.58 251.646 402.072 257.339 C 386.685 276.902 398.246 305.786 422.881 309.33 C 447.517 312.875 466.751 288.421 457.502 265.314 C 456.356 262.45 454.805 259.765 452.897 257.339 C 457.231 251.838 395.154 233.72 395.154 237.35 Z" opacity="0.1" style="" transform="matrix(1, 0, 0, 1, 0, 1.4210854715202004e-14)"/>
  <g class="layer" display="inline" transform="matrix(1.1787430047988892, 0, 0, 1.1787430047988892, -105.74368601273548, 34.68024929404997)" style="">
    <title>Layer 1</title>
    <path d="m267.4,173.34c0.96,-0.69 1.74,-0.96 2.09,-1.4l-0.71,-0.51" fill="none" id="svg_37" stroke="#f8c8dc" stroke-linecap="round" stroke-linejoin="round" stroke-width="5"/>
    <rect fill="#444444" height="83" id="svg_3" stroke="#444444" stroke-linecap="round" stroke-linejoin="round" stroke-width="5" width="5.23" x="202.39" y="164.67"/>
    <ellipse cx="243.44" cy="208.85" fill="#d9a88b" fill-opacity="0.6" id="svg_4" rx="40.45" ry="40.45" stroke="#444444" stroke-linecap="round" stroke-linejoin="round" stroke-width="5"/>
    <line fill="none" id="svg_15" stroke="#444444" stroke-linecap="round" stroke-linejoin="round" stroke-width="5" x1="228.47" x2="228.47" y1="187.3" y2="188.26"/>
    <line fill="none" id="svg_16" stroke="#444444" stroke-linecap="round" stroke-linejoin="round" stroke-width="5" x1="259.26" x2="259.26" y1="186.56" y2="187.52"/>
    <path d="m234.63,201.1c0.64,0.69 1.22,1.09 1.89,1.57c0.7,0.5 1.51,0.75 2.18,0.97c0.82,0.28 1.72,0.3 2.43,0.63c0.67,0.31 1.55,0.33 2.46,0.33c0.84,0 1.75,0.14 2.63,0c0.85,-0.13 1.63,-0.47 2.43,-0.64c0.86,-0.18 1.57,-0.32 2.22,-0.64c0.66,-0.32 1.26,-0.77 1.6,-1.48l0.69,-0.43" fill="none" id="svg_24" stroke="#444444" stroke-linecap="round" stroke-linejoin="round" stroke-width="5"/>
    <path d="m244.5,206.52c0,0.89 -0.01,1.79 -0.32,2.46c-0.35,0.74 -0.73,1.44 -1.27,2.09c-0.51,0.62 -1.11,0.97 -1.91,1.25c-0.71,0.25 -1.45,0.56 -2.23,0.88c-0.74,0.31 -1.61,0.32 -2.48,0.32c-0.91,0 -1.75,-0.17 -2.55,-0.44c-0.84,-0.28 -1.75,-0.5 -2.55,-0.74c-0.82,-0.25 -1.46,-0.73 -2.04,-1.34l-0.48,-0.57l-0.3,-0.74" fill="none" id="svg_25" stroke="#444444" stroke-linecap="round" stroke-linejoin="round" stroke-width="5"/>
    <path d="m244.5,205.24c0.32,0.89 0.22,1.85 0.66,2.57c0.43,0.69 0.98,1.3 1.57,1.86c0.57,0.54 1.17,1.1 1.83,1.53c0.78,0.5 1.5,0.65 2.37,0.82c0.79,0.16 1.67,0.25 2.48,0.55c0.67,0.25 1.54,0.32 2.42,0.32c0.88,0 1.44,-0.58 2.17,-0.95c0.63,-0.32 1.05,-0.96 1.46,-1.55l0.37,-0.69" fill="none" id="svg_26" stroke="#444444" stroke-linecap="round" stroke-linejoin="round" stroke-width="5"/>
    <path d="m216.79,174.14c0.96,-0.69 1.74,-0.96 2.09,-1.4l-0.71,-0.51" fill="none" id="svg_36" stroke="#f8c8dc" stroke-linecap="round" stroke-linejoin="round" stroke-width="5"/>
    <line fill="none" id="svg_31" stroke="#444444" stroke-linecap="round" stroke-linejoin="round" stroke-width="5" x1="215.2" x2="214.56" y1="178.81" y2="167.98"/>
    <line fill="none" id="svg_32" stroke="#444444" stroke-linecap="round" stroke-linejoin="round" stroke-width="5" x1="222.53" x2="214.88" y1="173.4" y2="167.98"/>
    <line fill="none" id="svg_33" stroke="#444444" stroke-linecap="round" stroke-linejoin="round" stroke-width="5" transform="matrix(1 0 0 1 0 0) rotate(-1.19234 270.887 172.241)" x1="270.73" x2="271.05" y1="178.26" y2="166.23"/>
    <line fill="none" id="svg_34" stroke="#444444" stroke-linecap="round" stroke-linejoin="round" stroke-width="5" x1="263.37" x2="270.9" y1="171.1" y2="165.96"/>
    <line fill="none" id="svg_38" stroke="#444444" stroke-linecap="round" stroke-linejoin="round" stroke-width="5" x1="222.63" x2="214.08" y1="199.33" y2="201.47"/>
    <line fill="none" id="svg_39" stroke="#444444" stroke-linecap="round" stroke-linejoin="round" stroke-width="5" x1="222.63" x2="217.4" y1="206.22" y2="209.79"/>
    <line fill="none" id="svg_40" stroke="#444444" stroke-linecap="round" stroke-linejoin="round" stroke-width="5" x1="262.53" x2="272.03" y1="197.43" y2="199.1"/>
    <line fill="none" id="svg_42" stroke="#444444" stroke-linecap="round" stroke-linejoin="round" stroke-width="5" x1="263.01" x2="268.71" y1="203.61" y2="207.41"/>
  </g>
</svg>