<?xml version="1.0" encoding="utf-8"?>
<svg xmlns="http://www.w3.org/2000/svg" viewBox="14.291 150.951 444.804 281.258" width="444.804px" height="281.258px">
  <path id="Path_83" data-name="Path 83" d="M 407.505 336.74 C 405.351 355.198 400.874 370.018 394.73 381.837 C 386.553 397.585 372.567 403.93 360.073 410.57 C 356.463 412.485 352.71 414.117 348.847 415.451 C 326.112 423.342 300.666 421.248 280.679 417.082 C 266.66 414.158 252.43 412.359 238.124 411.702 C 234.044 411.518 229.96 411.427 225.871 411.428 C 219.567 411.437 106.056 413.591 78.419 357.639 C 71.596 343.837 66.919 326.977 65.239 306.425 C 60.484 248.322 86.616 210.162 120.324 185.22 C 184.089 138.037 271.493 140.016 334.317 188.441 C 376.165 220.698 415.347 269.516 407.505 336.74 Z" fill="#3f3d56" transform="matrix(1, 0, 0, 1, 2.842170943040401e-14, 0)"/>
  <path id="Path_84" data-name="Path 84" d="M 394.73 381.837 C 386.553 397.585 375.429 408.019 362.935 414.658 C 359.325 416.573 355.571 418.205 351.709 419.539 C 328.974 427.43 303.528 425.337 283.541 421.171 C 269.522 418.246 255.291 416.447 240.986 415.791 C 236.906 415.607 232.821 415.515 228.733 415.517 C 222.429 415.525 216.126 415.759 209.825 416.22 C 168.873 419.229 106.056 413.591 78.419 357.639 L 147.569 223.707 L 173.304 289.781 L 181.518 310.873 L 204.154 279.81 L 215.843 263.772 L 269.072 324.798 L 284.117 291.572 L 388.278 376.575 L 394.088 381.314 L 394.73 381.837 Z" fill="#f2f2f2" transform="matrix(1, 0, 0, 1, 2.842170943040401e-14, 0)"/>
  <path id="Path_85" data-name="Path 85" d="M 137.757 266.634 L 148.386 243.331 L 163.104 277.263 L 150.43 252.734 L 137.757 266.634 Z" opacity="0.1" transform="matrix(1, 0, 0, 1, 2.842170943040401e-14, 0)"/>
  <path id="Path_86" data-name="Path 86" d="M 240.986 415.791 C 236.906 415.607 232.821 415.515 228.733 415.517 L 181.518 310.873 L 240.986 415.791 Z" opacity="0.1" transform="matrix(1, 0, 0, 1, 2.842170943040401e-14, 0)"/>
  <path id="Path_87" data-name="Path 87" d="M 204.155 279.81 L 215.843 270.722 L 268.99 332.046 L 215.025 279.716 L 204.155 279.81 Z" opacity="0.1" transform="matrix(1, 0, 0, 1, 2.842170943040401e-14, 0)"/>
  <path id="Path_88" data-name="Path 88" d="M 362.935 414.658 C 359.325 416.573 355.571 418.205 351.709 419.539 L 269.072 324.798 L 362.935 414.658 Z" opacity="0.1" transform="matrix(1, 0, 0, 1, 2.842170943040401e-14, 0)"/>
  <circle id="Ellipse_11" data-name="Ellipse 11" cx="211.346" cy="192.636" r="1.226" fill="#f2f2f2" transform="matrix(1, 0, 0, 1, 2.842170943040401e-14, 0)"/>
  <circle id="Ellipse_12" data-name="Ellipse 12" cx="177.413" cy="234.745" r="1.226" fill="#f2f2f2" transform="matrix(1, 0, 0, 1, 2.842170943040401e-14, 0)"/>
  <circle id="Ellipse_13" data-name="Ellipse 13" cx="260.405" cy="242.104" r="0.818" fill="#f2f2f2" transform="matrix(1, 0, 0, 1, 2.842170943040401e-14, 0)"/>
  <circle id="Ellipse_14" data-name="Ellipse 14" cx="88.697" cy="260.501" r="0.818" fill="#f2f2f2" transform="matrix(1, 0, 0, 1, 2.842170943040401e-14, 0)"/>
  <circle id="Ellipse_15" data-name="Ellipse 15" cx="265.311" cy="191.409" r="0.818" fill="#f2f2f2" transform="matrix(1, 0, 0, 1, 2.842170943040401e-14, 0)"/>
  <circle id="Ellipse_16" data-name="Ellipse 16" cx="316.006" cy="230.657" r="0.818" fill="#f2f2f2" transform="matrix(1, 0, 0, 1, 2.842170943040401e-14, 0)"/>
  <circle id="Ellipse_17" data-name="Ellipse 17" cx="365.883" cy="292.799" r="0.818" fill="#f2f2f2" transform="matrix(1, 0, 0, 1, 2.842170943040401e-14, 0)"/>
  <path id="Path_89" data-name="Path 89" d="M 139.392 200.51 L 138.264 200.51 L 138.264 199.382 L 137.659 199.382 L 137.659 200.51 L 136.53 200.51 L 136.53 201.114 L 137.659 201.114 L 137.659 202.242 L 138.264 202.242 L 138.264 201.114 L 139.392 201.114 L 139.392 200.51 Z" fill="#f2f2f2" transform="matrix(1, 0, 0, 1, 2.842170943040401e-14, 0)"/>
  <path id="Path_90" data-name="Path 90" d="M 360.977 324.385 L 359.848 324.385 L 359.848 323.256 L 359.243 323.256 L 359.243 324.385 L 358.115 324.385 L 358.115 324.989 L 359.243 324.989 L 359.243 326.117 L 359.848 326.117 L 359.848 324.989 L 360.977 324.989 L 360.977 324.385 Z" fill="#f2f2f2" transform="matrix(1, 0, 0, 1, 2.842170943040401e-14, 0)"/>
  <path id="Path_91" data-name="Path 91" d="M 459.095 401.956 C 459.095 408.73 359.523 432.209 236.693 432.209 C 113.864 432.209 14.291 408.73 14.291 401.956 C 14.291 395.182 113.864 407.679 236.693 407.679 C 359.523 407.679 459.095 395.182 459.095 401.956 Z" fill="#3f3d56" transform="matrix(1, 0, 0, 1, 2.842170943040401e-14, 0)"/>
  <path id="Path_92" data-name="Path 92" d="M 459.095 401.956 C 459.095 408.73 359.523 432.209 236.693 432.209 C 113.864 432.209 14.291 408.73 14.291 401.956 C 14.291 395.182 113.864 407.679 236.693 407.679 C 359.523 407.679 459.095 395.182 459.095 401.956 Z" opacity="0.1" transform="matrix(1, 0, 0, 1, 2.842170943040401e-14, 0)"/>
  <ellipse id="Ellipse_18" data-name="Ellipse 18" cx="236.693" cy="401.956" rx="222.402" ry="12.265" fill="#3f3d56" transform="matrix(1, 0, 0, 1, 2.842170943040401e-14, 0)"/>
  <path id="Path_93" data-name="Path 93" d="M 246.505 384.785 C 246.505 398.332 240.465 394.597 233.014 394.597 C 225.563 394.597 219.522 398.332 219.522 384.785 C 219.522 371.238 233.014 345.538 233.014 345.538 C 233.014 345.538 246.505 371.238 246.505 384.785 Z" fill="#ff6584" transform="matrix(1, 0, 0, 1, 2.842170943040401e-14, 0)"/>
  <path id="Path_94" data-name="Path 94" d="M 239.146 389.969 C 239.146 396.126 236.4 394.428 233.014 394.428 C 229.627 394.428 226.881 396.126 226.881 389.969 C 226.881 383.811 233.014 372.129 233.014 372.129 C 233.014 372.129 239.146 383.812 239.146 389.969 Z" opacity="0.1" transform="matrix(1, 0, 0, 1, 2.842170943040401e-14, 0)"/>
  <rect id="Rectangle_97" data-name="Rectangle 97" width="37.612" height="7.359" rx="9" fill="#2f2e41" x="214.208" y="398.276" transform="matrix(1, 0, 0, 1, 2.842170943040401e-14, 0)"/>
  <g id="XMLID_273_" transform="matrix(-0.196613952518, 0, 0, -0.196613952518, -40.394067378946, 164.242444104988)" style="transform-origin: 200px 200px;">
    <g id="XMLID_78_">
      <path id="XMLID_83_" class="st0" d="M304.8,0H95.2C42.6,0,0,42.6,0,95.2v209.6C0,357.4,42.6,400,95.2,400h209.6 c52.6,0,95.2-42.6,95.2-95.2V95.2C400,42.6,357.4,0,304.8,0z M106.3,375C61.4,375,25,338.6,25,293.8c0-44.9,36.4-81.3,81.3-81.3 c44.9,0,81.3,36.4,81.3,81.3C187.5,338.6,151.1,375,106.3,375z M293.8,375c-44.9,0-81.3-36.4-81.3-81.3 c0-44.9,36.4-81.3,81.3-81.3c44.9,0,81.3,36.4,81.3,81.3C375,338.6,338.6,375,293.8,375z"/>
    </g>
    <g id="XMLID_67_" class="st2">
      <path id="XMLID_74_" class="st3" d="M304.8,0H95.2C42.6,0,0,42.6,0,95.2v209.6C0,357.4,42.6,400,95.2,400h209.6 c52.6,0,95.2-42.6,95.2-95.2V95.2C400,42.6,357.4,0,304.8,0z M106.3,375C61.4,375,25,338.6,25,293.8c0-44.9,36.4-81.3,81.3-81.3 c44.9,0,81.3,36.4,81.3,81.3C187.5,338.6,151.1,375,106.3,375z M293.8,375c-44.9,0-81.3-36.4-81.3-81.3 c0-44.9,36.4-81.3,81.3-81.3c44.9,0,81.3,36.4,81.3,81.3C375,338.6,338.6,375,293.8,375z" style="transform-box: fill-box; transform-origin: 50% 50%;"/>
    </g>
  </g>
  <rect id="Rectangle_98" data-name="Rectangle 98" width="37.612" height="7.359" rx="9" fill="#2f2e41" x="214.208" y="390.917" transform="matrix(1, 0, 0, 1, 2.842170943040401e-14, 0)"/>
  <path id="Path_95" data-name="Path 95" d="M 70.3 351.493 C 70.3 374.118 84.494 392.427 102.036 392.427" fill="#3f3d56" transform="matrix(1, 0, 0, 1, 2.842170943040401e-14, 0)"/>
  <path id="Path_96" data-name="Path 96" d="M 102.036 392.427 C 102.036 369.547 117.876 351.033 137.451 351.033" fill="#6c63ff" transform="matrix(1, 0, 0, 1, 2.842170943040401e-14, 0)"/>
  <path id="Path_97" data-name="Path 97" d="M 81.798 353.544 C 81.798 375.036 90.85 392.427 102.035 392.427" fill="#6c63ff" transform="matrix(1, 0, 0, 1, 2.842170943040401e-14, 0)"/>
  <path id="Path_98" data-name="Path 98" d="M 102.036 392.427 C 102.036 363.191 120.344 339.534 142.97 339.534" fill="#3f3d56" transform="matrix(1, 0, 0, 1, 2.842170943040401e-14, 0)"/>
  <path id="Path_99" data-name="Path 99" d="M 95.361 392.715 C 95.361 392.715 99.862 392.577 101.218 391.612 C 102.574 390.646 108.141 389.493 108.478 391.041 C 108.814 392.59 115.241 398.745 110.16 398.787 C 105.079 398.828 98.353 397.995 97 397.17 C 95.646 396.346 95.361 392.715 95.361 392.715 Z" fill="#a8a8a8" transform="matrix(1, 0, 0, 1, 2.842170943040401e-14, 0)"/>
  <path id="Path_100" data-name="Path 100" d="M 110.249 398.247 C 105.168 398.288 98.443 397.455 97.089 396.631 C 96.058 396.003 95.647 393.749 95.51 392.71 L 95.359 392.715 C 95.359 392.715 95.645 396.345 96.998 397.172 C 98.351 397.998 105.077 398.829 110.158 398.788 C 111.625 398.776 112.132 398.254 112.104 397.48 C 111.9 397.946 111.341 398.238 110.249 398.247 Z" opacity="0.2" transform="matrix(1, 0, 0, 1, 2.842170943040401e-14, 0)"/>
  <path id="Path_101" data-name="Path 101" d="M 309.231 366.429 C 309.231 381.976 318.984 394.556 331.038 394.556" fill="#3f3d56" transform="matrix(1, 0, 0, 1, 2.842170943040401e-14, 0)"/>
  <path id="Path_102" data-name="Path 102" d="M 331.038 394.556 C 331.038 378.835 341.922 366.112 355.373 366.112" fill="#6c63ff" transform="matrix(1, 0, 0, 1, 2.842170943040401e-14, 0)"/>
  <path id="Path_103" data-name="Path 103" d="M 317.132 367.838 C 317.132 382.606 323.352 394.556 331.038 394.556" fill="#6c63ff" transform="matrix(1, 0, 0, 1, 2.842170943040401e-14, 0)"/>
  <path id="Path_104" data-name="Path 104" d="M 331.038 394.556 C 331.038 374.467 343.619 358.212 359.165 358.212" fill="#3f3d56" transform="matrix(1, 0, 0, 1, 2.842170943040401e-14, 0)"/>
  <path id="Path_105" data-name="Path 105" d="M 326.45 394.755 C 326.45 394.755 329.543 394.659 330.475 393.996 C 331.407 393.332 335.232 392.54 335.463 393.604 C 335.693 394.669 340.11 398.898 336.619 398.926 C 333.127 398.955 328.506 398.383 327.576 397.816 C 326.646 397.249 326.45 394.755 326.45 394.755 Z" fill="#a8a8a8" transform="matrix(1, 0, 0, 1, 2.842170943040401e-14, 0)"/>
  <path id="Path_106" data-name="Path 106" d="M 336.682 398.556 C 333.19 398.584 328.569 398.012 327.639 397.445 C 326.93 397.013 326.648 395.465 326.554 394.751 L 326.45 394.755 C 326.45 394.755 326.646 397.249 327.577 397.816 C 328.507 398.383 333.128 398.955 336.62 398.926 C 337.627 398.918 337.976 398.558 337.956 398.027 C 337.816 398.349 337.432 398.549 336.682 398.556 Z" opacity="0.2" transform="matrix(1, 0, 0, 1, 2.842170943040401e-14, 0)"/>
  <path id="Path_107" data-name="Path 107" d="M 379.706 403.892 C 379.706 403.892 384.351 403.186 385.634 402.015 C 386.918 400.845 392.54 398.954 393.082 400.516 C 393.625 402.078 401.052 407.649 395.794 408.328 C 390.536 409.006 383.466 408.986 381.961 408.301 C 380.456 407.617 379.706 403.892 379.706 403.892 Z" fill="#a8a8a8" transform="matrix(1, 0, 0, 1, 2.842170943040401e-14, 0)"/>
  <path id="Path_108" data-name="Path 108" d="M 395.82 407.758 C 390.563 408.436 383.493 408.416 381.988 407.731 C 380.843 407.21 380.134 404.928 379.862 403.868 L 379.707 403.893 C 379.707 403.893 380.456 407.617 381.962 408.301 C 383.468 408.986 390.537 409.006 395.795 408.328 C 397.312 408.132 397.772 407.528 397.646 406.731 C 397.493 407.24 396.95 407.612 395.82 407.758 Z" opacity="0.2" transform="matrix(1, 0, 0, 1, 2.842170943040401e-14, 0)"/>
  <path id="Path_109" data-name="Path 109" d="M 265.417 403.558 C 265.417 403.558 269.337 402.962 270.42 401.974 C 271.504 400.986 276.248 399.39 276.705 400.708 C 277.163 402.027 283.432 406.728 278.995 407.301 C 274.558 407.873 268.591 407.856 267.321 407.278 C 266.051 406.701 265.417 403.558 265.417 403.558 Z" fill="#a8a8a8" transform="matrix(1, 0, 0, 1, 2.842170943040401e-14, 0)"/>
  <path id="Path_110" data-name="Path 110" d="M 279.017 406.818 C 274.58 407.391 268.613 407.374 267.342 406.796 C 266.375 406.356 265.778 404.43 265.548 403.535 L 265.417 403.556 C 265.417 403.556 266.049 406.699 267.32 407.276 C 268.591 407.854 274.556 407.872 278.994 407.299 C 280.275 407.135 280.663 406.624 280.557 405.95 C 280.428 406.382 279.97 406.696 279.017 406.818 Z" opacity="0.2" transform="matrix(1, 0, 0, 1, 2.842170943040401e-14, 0)"/>
  <path id="Path_111" data-name="Path 111" d="M 64.327 401.599 C 64.327 401.599 67.378 401.135 68.222 400.366 C 69.065 399.598 72.76 398.355 73.115 399.381 C 73.47 400.408 78.351 404.068 74.897 404.513 C 71.442 404.959 66.797 404.946 65.808 404.496 C 64.819 404.046 64.327 401.599 64.327 401.599 Z" fill="#a8a8a8" transform="matrix(1, 0, 0, 1, 2.842170943040401e-14, 0)"/>
  <path id="Path_112" data-name="Path 112" d="M 74.914 404.139 C 71.46 404.585 66.814 404.571 65.825 404.121 C 65.072 403.779 64.608 402.279 64.428 401.583 L 64.327 401.599 C 64.327 401.599 64.817 404.046 65.808 404.496 C 66.799 404.946 71.442 404.959 74.897 404.513 C 75.894 404.385 76.195 403.988 76.113 403.464 C 76.013 403.799 75.656 404.043 74.914 404.139 Z" opacity="0.2" transform="matrix(1, 0, 0, 1, 2.842170943040401e-14, 0)"/>
  <path id="Path_113" data-name="Path 113" d="M 171.158 396.787 C 171.158 409.141 153.936 405.32 132.851 405.32 C 111.765 405.32 94.8 409.141 94.8 396.787 C 94.8 384.432 112.019 381.745 133.104 381.745 C 154.19 381.745 171.158 384.432 171.158 396.787 Z" opacity="0.1" transform="matrix(1, 0, 0, 1, 2.842170943040401e-14, 0)"/>
  <path id="Path_114" data-name="Path 114" d="M 169.611 395.809 C 169.611 408.164 152.389 404.343 131.304 404.343 C 110.218 404.343 93.253 408.164 93.253 395.809 C 93.253 383.454 110.47 380.764 131.556 380.764 C 152.641 380.764 169.611 383.453 169.611 395.809 Z" fill="#3f3d56" transform="matrix(1, 0, 0, 1, 2.842170943040401e-14, 0)"/>
  <rect id="Rectangle_3" data-name="Rectangle 3" width="37.764" height="14.908" rx="2" fill="#d8d8d8" transform="matrix(0.9658860564231873, -0.25896796584129333, 0.25896796584129333, 0.9658860564231873, 163.34851561035245, 367.1465563519759)"/>
  <rect id="Rectangle_4" data-name="Rectangle 4" width="2.182" height="2.182" rx="1" transform="matrix(0.9658860564231873, -0.25896796584129333, 0.25896796584129333, 0.9658860564231873, 173.02531948761091, 374.3010975808229)" fill="#4a4a4a"/>
  <rect id="Rectangle_5" data-name="Rectangle 5" width="2.182" height="2.182" rx="1" transform="matrix(0.9658860564231873, -0.25896796584129333, 0.25896796584129333, 0.9658860564231873, 175.52245090968748, 373.63160293196415)" fill="#4a4a4a"/>
  <rect id="Rectangle_6" data-name="Rectangle 6" width="2.182" height="2.182" rx="1" transform="matrix(0.9658860564231873, -0.25896796584129333, 0.25896796584129333, 0.9658860564231873, 178.0199790602915, 372.96195569521024)" fill="#4a4a4a"/>
  <rect id="Rectangle_7" data-name="Rectangle 7" width="2.182" height="2.182" rx="1" transform="matrix(0.9658860564231873, -0.25896796584129333, 0.25896796584129333, 0.9658860564231873, 180.5175072108955, 372.29233897603535)" fill="#4a4a4a"/>
  <rect id="Rectangle_8" data-name="Rectangle 8" width="2.182" height="2.182" rx="1" transform="matrix(0.9658860564231873, -0.25896796584129333, 0.25896796584129333, 0.9658860564231873, 183.01463863297207, 371.6228138095976)" fill="#4a4a4a"/>
  <rect id="Rectangle_9" data-name="Rectangle 9" width="2.182" height="2.182" rx="1" transform="matrix(0.9658860564231873, -0.25896796584129333, 0.25896796584129333, 0.9658860564231873, 185.51215152478656, 370.9531970904227)" fill="#4a4a4a"/>
  <rect id="Rectangle_10" data-name="Rectangle 10" width="2.182" height="2.182" rx="1" transform="matrix(0.9658860564231873, -0.25896796584129333, 0.25896796584129333, 0.9658860564231873, 188.00967967539057, 370.2835803712478)" fill="#4a4a4a"/>
  <rect id="Rectangle_11" data-name="Rectangle 11" width="2.182" height="2.182" rx="1" transform="matrix(0.9658860564231873, -0.25896796584129333, 0.25896796584129333, 0.9658860564231873, 190.50720782599458, 369.6139636520729)" fill="#4a4a4a"/>
  <rect id="Rectangle_12" data-name="Rectangle 12" width="2.182" height="2.182" rx="1" transform="matrix(0.9658860564231873, -0.25896796584129333, 0.25896796584129333, 0.9658860564231873, 193.00433924807115, 368.94443848563515)" fill="#4a4a4a"/>
  <path id="Path_51" data-name="Path 51" d="M 166.497 371.303 L 171.986 371.303 C 172.233 371.303 172.433 371.503 172.433 371.75 L 172.433 373.038 C 172.433 373.285 172.233 373.485 171.986 373.485 L 166.497 373.485 C 166.25 373.485 166.05 373.285 166.05 373.038 L 166.05 371.75 C 166.05 371.503 166.25 371.303 166.497 371.303 Z M 196.716 371.303 L 202.205 371.303 C 202.452 371.303 202.652 371.503 202.652 371.75 L 202.652 373.038 C 202.652 373.285 202.452 373.485 202.205 373.485 L 196.716 373.485 C 196.469 373.485 196.269 373.285 196.269 373.038 L 196.269 371.75 C 196.269 371.503 196.469 371.303 196.716 371.303 Z" fill="#4a4a4a" fill-rule="evenodd" style="transform-origin: 184.351px 372.394px;" transform="matrix(0.965886116028, -0.258967936039, 0.258967936039, 0.965886116028, -0.000015525985, 0.000027303938)"/>
  <path id="Path_52" data-name="Path 52" d="M 165.718 370.613 L 167.814 370.613 C 168.06 370.613 168.26 370.813 168.26 371.06 L 168.26 372.347 C 168.26 372.594 168.06 372.794 167.814 372.794 L 165.718 372.794 C 165.471 372.794 165.271 372.594 165.271 372.347 L 165.271 371.06 C 165.271 370.813 165.471 370.613 165.718 370.613 Z" fill="#4a4a4a" fill-rule="evenodd" style="transform-origin: 166.766px 371.703px;" transform="matrix(0.965886116027, -0.258967936039, 0.258967936039, 0.965886116028, -0.000010132313, 0.000028927034)"/>
  <rect id="Rectangle_13" data-name="Rectangle 13" width="2.182" height="2.182" rx="1" transform="matrix(0.9658860564231873, -0.25896796584129333, 0.25896796584129333, 0.9658860564231873, 168.31715894690618, 370.15809208625797)" fill="#4a4a4a"/>
  <rect id="Rectangle_14" data-name="Rectangle 14" width="2.182" height="2.182" rx="1" transform="matrix(0.9658860564231873, -0.25896796584129333, 0.25896796584129333, 0.9658860564231873, 170.8146870975102, 369.48844484950405)" fill="#4a4a4a"/>
  <rect id="Rectangle_15" data-name="Rectangle 15" width="2.182" height="2.182" rx="1" transform="matrix(0.9658860564231873, -0.25896796584129333, 0.25896796584129333, 0.9658860564231873, 173.3122152481142, 368.81882813032917)" fill="#4a4a4a"/>
  <rect id="Rectangle_16" data-name="Rectangle 16" width="2.182" height="2.182" rx="1" transform="matrix(0.9658860564231873, -0.25896796584129333, 0.25896796584129333, 0.9658860564231873, 175.8097281399287, 368.1492114111542)" fill="#4a4a4a"/>
  <rect id="Rectangle_17" data-name="Rectangle 17" width="2.182" height="2.182" rx="1" transform="matrix(0.9658860564231873, -0.25896796584129333, 0.25896796584129333, 0.9658860564231873, 178.30685956200526, 367.4796862447165)" fill="#4a4a4a"/>
  <rect id="Rectangle_18" data-name="Rectangle 18" width="2.182" height="2.182" rx="1" transform="matrix(0.9658860564231873, -0.25896796584129333, 0.25896796584129333, 0.9658860564231873, 180.80438771260927, 366.8100695255416)" fill="#4a4a4a"/>
  <rect id="Rectangle_19" data-name="Rectangle 19" width="2.182" height="2.182" rx="1" transform="matrix(0.9658860564231873, -0.25896796584129333, 0.25896796584129333, 0.9658860564231873, 183.30191586321328, 366.1404528063667)" fill="#4a4a4a"/>
  <rect id="Rectangle_20" data-name="Rectangle 20" width="2.182" height="2.182" rx="1" transform="matrix(0.9658860564231873, -0.25896796584129333, 0.25896796584129333, 0.9658860564231873, 185.79904728528984, 365.47092763992896)" fill="#4a4a4a"/>
  <rect id="Rectangle_21" data-name="Rectangle 21" width="2.182" height="2.182" rx="1" transform="matrix(0.9658860564231873, -0.25896796584129333, 0.25896796584129333, 0.9658860564231873, 188.2961787073664, 364.8014024734911)" fill="#4a4a4a"/>
  <rect id="Rectangle_22" data-name="Rectangle 22" width="2.182" height="2.182" rx="1" transform="matrix(0.9658860564231873, -0.25896796584129333, 0.25896796584129333, 0.9658860564231873, 190.7936915991809, 364.1317857543163)" fill="#4a4a4a"/>
  <rect id="Rectangle_23" data-name="Rectangle 23" width="2.182" height="2.182" rx="1" transform="matrix(0.9658860564231873, -0.25896796584129333, 0.25896796584129333, 0.9658860564231873, 193.29121974978486, 363.4621690351414)" fill="#4a4a4a"/>
  <rect id="Rectangle_24" data-name="Rectangle 24" width="2.182" height="2.182" rx="1" transform="matrix(0.9658860564231873, -0.25896796584129333, 0.25896796584129333, 0.9658860564231873, 195.78835117186148, 362.7926438687036)" fill="#4a4a4a"/>
  <rect id="Rectangle_25" data-name="Rectangle 25" width="2.182" height="2.182" rx="1" transform="matrix(0.9658860564231873, -0.25896796584129333, 0.25896796584129333, 0.9658860564231873, 198.2858793224655, 362.12302714952875)" fill="#4a4a4a"/>
  <path id="Path_53" data-name="Path 53" d="M 197.543 359.518 L 199.639 359.518 C 199.886 359.518 200.086 359.718 200.086 359.965 L 200.086 361.253 C 200.086 361.5 199.886 361.7 199.639 361.7 L 197.543 361.7 C 197.296 361.7 197.096 361.5 197.096 361.253 L 197.096 359.965 C 197.096 359.718 197.296 359.518 197.543 359.518 Z" fill="#4a4a4a" fill-rule="evenodd" style="transform-origin: 198.591px 360.609px;" transform="matrix(-0.965886116029, 0.258967936039, -0.258967936039, -0.965886116028, -0.000056175469, -0.000030082763)"/>
  <rect id="Rectangle_26" data-name="Rectangle 26" width="2.182" height="2.182" rx="1" transform="matrix(-0.9658860564231873, 0.25896796584129333, -0.25896796584129333, -0.9658860564231873, 197.04001441717176, 362.1543687031972)" fill="#4a4a4a"/>
  <rect id="Rectangle_27" data-name="Rectangle 27" width="2.182" height="2.182" rx="1" transform="matrix(-0.9658860564231873, 0.25896796584129333, -0.25896796584129333, -0.9658860564231873, 194.54248626656775, 362.823985422372)" fill="#4a4a4a"/>
  <rect id="Rectangle_28" data-name="Rectangle 28" width="2.182" height="2.182" rx="1" transform="matrix(-0.9658860564231873, 0.25896796584129333, -0.25896796584129333, -0.9658860564231873, 192.04495811596368, 363.4936326591259)" fill="#4a4a4a"/>
  <rect id="Rectangle_29" data-name="Rectangle 29" width="2.182" height="2.182" rx="1" transform="matrix(-0.9658860564231873, 0.25896796584129333, -0.25896796584129333, -0.9658860564231873, 189.54742996535973, 364.16324937830086)" fill="#4a4a4a"/>
  <rect id="Rectangle_30" data-name="Rectangle 30" width="2.182" height="2.182" rx="1" transform="matrix(-0.9658860564231873, 0.25896796584129333, -0.25896796584129333, -0.9658860564231873, 187.05029854328316, 364.83277454473864)" fill="#4a4a4a"/>
  <rect id="Rectangle_31" data-name="Rectangle 31" width="2.182" height="2.182" rx="1" transform="matrix(-0.9658860564231873, 0.25896796584129333, -0.25896796584129333, -0.9658860564231873, 184.55278565146867, 365.5023912639135)" fill="#4a4a4a"/>
  <rect id="Rectangle_32" data-name="Rectangle 32" width="2.182" height="2.182" rx="1" transform="matrix(-0.9658860564231873, 0.25896796584129333, -0.25896796584129333, -0.9658860564231873, 182.05525750086466, 366.1720079830884)" fill="#4a4a4a"/>
  <rect id="Rectangle_33" data-name="Rectangle 33" width="2.182" height="2.182" rx="1" transform="matrix(-0.9658860564231873, 0.25896796584129333, -0.25896796584129333, -0.9658860564231873, 179.5581260787881, 366.8415331495262)" fill="#4a4a4a"/>
  <rect id="Rectangle_34" data-name="Rectangle 34" width="2.182" height="2.182" rx="1" transform="matrix(-0.9658860564231873, 0.25896796584129333, -0.25896796584129333, -0.9658860564231873, 177.06059792818402, 367.51114986870107)" fill="#4a4a4a"/>
  <rect id="Rectangle_35" data-name="Rectangle 35" width="2.182" height="2.182" rx="1" transform="matrix(-0.9658860564231873, 0.25896796584129333, -0.25896796584129333, -0.9658860564231873, 174.56306977758007, 368.18076658787595)" fill="#4a4a4a"/>
  <rect id="Rectangle_36" data-name="Rectangle 36" width="2.182" height="2.182" rx="1" transform="matrix(-0.9658860564231873, 0.25896796584129333, -0.25896796584129333, -0.9658860564231873, 172.065541626976, 368.8503833070508)" fill="#4a4a4a"/>
  <rect id="Rectangle_37" data-name="Rectangle 37" width="2.182" height="2.182" rx="1" transform="matrix(-0.9658860564231873, 0.25896796584129333, -0.25896796584129333, -0.9658860564231873, 169.568425463689, 369.5199084734886)" fill="#4a4a4a"/>
  <rect id="Rectangle_38" data-name="Rectangle 38" width="2.182" height="2.182" rx="1" transform="matrix(-0.9658860564231873, 0.25896796584129333, -0.25896796584129333, -0.9658860564231873, 167.07129404161245, 370.18943363992634)" fill="#4a4a4a"/>
  <rect id="Rectangle_39" data-name="Rectangle 39" width="2.182" height="2.182" rx="1" transform="matrix(-0.9658860564231873, 0.25896796584129333, -0.25896796584129333, -0.9658860564231873, 197.04001441717176, 362.1543687031972)" fill="#4a4a4a"/>
  <rect id="Rectangle_40" data-name="Rectangle 40" width="2.182" height="2.182" rx="1" transform="matrix(-0.9658860564231873, 0.25896796584129333, -0.25896796584129333, -0.9658860564231873, 194.54248626656775, 362.823985422372)" fill="#4a4a4a"/>
  <rect id="Rectangle_41" data-name="Rectangle 41" width="2.182" height="2.182" rx="1" transform="matrix(-0.9658860564231873, 0.25896796584129333, -0.25896796584129333, -0.9658860564231873, 192.04495811596368, 363.4936326591259)" fill="#4a4a4a"/>
  <rect id="Rectangle_42" data-name="Rectangle 42" width="2.182" height="2.182" rx="1" transform="matrix(-0.9658860564231873, 0.25896796584129333, -0.25896796584129333, -0.9658860564231873, 189.54742996535973, 364.16324937830086)" fill="#4a4a4a"/>
  <rect id="Rectangle_43" data-name="Rectangle 43" width="2.182" height="2.182" rx="1" transform="matrix(-0.9658860564231873, 0.25896796584129333, -0.25896796584129333, -0.9658860564231873, 187.05029854328316, 364.83277454473864)" fill="#4a4a4a"/>
  <rect id="Rectangle_44" data-name="Rectangle 44" width="2.182" height="2.182" rx="1" transform="matrix(-0.9658860564231873, 0.25896796584129333, -0.25896796584129333, -0.9658860564231873, 184.55278565146867, 365.5023912639135)" fill="#4a4a4a"/>
  <rect id="Rectangle_45" data-name="Rectangle 45" width="2.182" height="2.182" rx="1" transform="matrix(-0.9658860564231873, 0.25896796584129333, -0.25896796584129333, -0.9658860564231873, 182.05525750086466, 366.1720079830884)" fill="#4a4a4a"/>
  <rect id="Rectangle_46" data-name="Rectangle 46" width="2.182" height="2.182" rx="1" transform="matrix(-0.9658860564231873, 0.25896796584129333, -0.25896796584129333, -0.9658860564231873, 179.5581260787881, 366.8415331495262)" fill="#4a4a4a"/>
  <rect id="Rectangle_47" data-name="Rectangle 47" width="2.182" height="2.182" rx="1" transform="matrix(-0.9658860564231873, 0.25896796584129333, -0.25896796584129333, -0.9658860564231873, 177.06059792818402, 367.51114986870107)" fill="#4a4a4a"/>
  <rect id="Rectangle_48" data-name="Rectangle 48" width="2.182" height="2.182" rx="1" transform="matrix(-0.9658860564231873, 0.25896796584129333, -0.25896796584129333, -0.9658860564231873, 174.56306977758007, 368.18076658787595)" fill="#4a4a4a"/>
  <rect id="Rectangle_49" data-name="Rectangle 49" width="2.182" height="2.182" rx="1" transform="matrix(-0.9658860564231873, 0.25896796584129333, -0.25896796584129333, -0.9658860564231873, 172.065541626976, 368.8503833070508)" fill="#4a4a4a"/>
  <rect id="Rectangle_50" data-name="Rectangle 50" width="2.182" height="2.182" rx="1" transform="matrix(-0.9658860564231873, 0.25896796584129333, -0.25896796584129333, -0.9658860564231873, 169.568425463689, 369.5199084734886)" fill="#4a4a4a"/>
  <rect id="Rectangle_51" data-name="Rectangle 51" width="2.182" height="2.182" rx="1" transform="matrix(-0.9658860564231873, 0.25896796584129333, -0.25896796584129333, -0.9658860564231873, 167.07129404161245, 370.18943363992634)" fill="#4a4a4a"/>
  <path id="Path_54" data-name="Path 54" d="M 166.372 372.995 L 169.357 372.995 C 169.604 372.995 169.804 373.195 169.804 373.441 L 169.804 374.729 C 169.804 374.976 169.604 375.176 169.357 375.176 L 166.372 375.176 C 166.125 375.176 165.926 374.976 165.926 374.729 L 165.926 373.442 C 165.925 373.195 166.125 372.995 166.372 372.995 Z" fill="#4a4a4a" fill-rule="evenodd" style="transform-origin: 167.865px 374.085px;" transform="matrix(0.965886116029, -0.258967936039, 0.258967936039, 0.965886116028, -0.000005503642, 0.000031462471)"/>
  <rect id="Rectangle_52" data-name="Rectangle 52" width="2.182" height="2.182" rx="1" fill="#4a4a4a" transform="matrix(0.9658860564231873, -0.25896796584129333, 0.25896796584129333, 0.9658860564231873, 169.9234517193868, 372.4040333153016)"/>
  <rect id="Rectangle_53" data-name="Rectangle 53" width="2.182" height="2.182" rx="1" transform="matrix(0.9658860564231873, -0.25896796584129333, 0.25896796584129333, 0.9658860564231873, 172.42097986999082, 371.7344165961267)" fill="#4a4a4a"/>
  <rect id="Rectangle_54" data-name="Rectangle 54" width="2.182" height="2.182" rx="1" transform="matrix(0.9658860564231873, -0.25896796584129333, 0.25896796584129333, 0.9658860564231873, 174.91811129206738, 371.0648914296889)" fill="#4a4a4a"/>
  <rect id="Rectangle_55" data-name="Rectangle 55" width="2.182" height="2.182" rx="1" transform="matrix(0.9658860564231873, -0.25896796584129333, 0.25896796584129333, 0.9658860564231873, 177.4156394426714, 370.39527471051406)" fill="#4a4a4a"/>
  <rect id="Rectangle_56" data-name="Rectangle 56" width="2.182" height="2.182" rx="1" transform="matrix(0.9658860564231873, -0.25896796584129333, 0.25896796584129333, 0.9658860564231873, 179.9131675932754, 369.7256579913392)" fill="#4a4a4a"/>
  <rect id="Rectangle_57" data-name="Rectangle 57" width="2.182" height="2.182" rx="1" transform="matrix(0.9658860564231873, -0.25896796584129333, 0.25896796584129333, 0.9658860564231873, 182.4106804850899, 369.05604127216424)" fill="#4a4a4a"/>
  <rect id="Rectangle_58" data-name="Rectangle 58" width="2.182" height="2.182" rx="1" transform="matrix(0.9658860564231873, -0.25896796584129333, 0.25896796584129333, 0.9658860564231873, 184.90781190716646, 368.3865161057265)" fill="#4a4a4a"/>
  <rect id="Rectangle_59" data-name="Rectangle 59" width="2.182" height="2.182" rx="1" transform="matrix(0.9658860564231873, -0.25896796584129333, 0.25896796584129333, 0.9658860564231873, 187.40494332924303, 367.7169909392887)" fill="#4a4a4a"/>
  <rect id="Rectangle_60" data-name="Rectangle 60" width="2.182" height="2.182" rx="1" transform="matrix(0.9658860564231873, -0.25896796584129333, 0.25896796584129333, 0.9658860564231873, 189.90247147984698, 367.04737422011385)" fill="#4a4a4a"/>
  <rect id="Rectangle_61" data-name="Rectangle 61" width="2.182" height="2.182" rx="1" transform="matrix(0.9658860564231873, -0.25896796584129333, 0.25896796584129333, 0.9658860564231873, 192.3996029019236, 366.3778490536761)" fill="#4a4a4a"/>
  <rect id="Rectangle_62" data-name="Rectangle 62" width="2.182" height="2.182" rx="1" transform="matrix(0.9658860564231873, -0.25896796584129333, 0.25896796584129333, 0.9658860564231873, 194.8971310525276, 365.70823233450113)" fill="#4a4a4a"/>
  <path id="Path_55" data-name="Path 55" d="M 198.139 364.499 L 200.963 364.499 C 201.209 364.5 201.409 364.7 201.409 364.946 L 201.409 366.234 C 201.409 366.481 201.209 366.681 200.963 366.681 L 198.138 366.681 C 197.892 366.681 197.692 366.481 197.692 366.234 L 197.692 364.947 C 197.691 364.7 197.891 364.499 198.138 364.499 L 198.139 364.499 Z" fill="#4a4a4a" fill-rule="evenodd" style="transform-origin: 199.551px 365.59px;" transform="matrix(0.965886116028, -0.258967936039, 0.258967936039, 0.965886116028, -0.000011276571, 0.000028301659)"/>
  <rect id="Rectangle_63" data-name="Rectangle 63" width="2.182" height="2.182" rx="1" fill="#4a4a4a" transform="matrix(0.9658860564231873, -0.25896796584129333, 0.25896796584129333, 0.9658860564231873, 167.09024545819287, 378.6849783267071)"/>
  <rect id="Rectangle_64" data-name="Rectangle 64" width="2.182" height="2.182" rx="1" transform="matrix(0.9658860564231873, -0.25896796584129333, 0.25896796584129333, 0.9658860564231873, 169.58777360879688, 378.0153616075322)" fill="#4a4a4a"/>
  <rect id="Rectangle_65" data-name="Rectangle 65" width="2.182" height="2.182" rx="1" transform="matrix(0.9658860564231873, -0.25896796584129333, 0.25896796584129333, 0.9658860564231873, 172.0849050308734, 377.3458364410944)" fill="#4a4a4a"/>
  <rect id="Rectangle_66" data-name="Rectangle 66" width="2.182" height="2.182" rx="1" transform="matrix(0.9658860564231873, -0.25896796584129333, 0.25896796584129333, 0.9658860564231873, 174.58243318147746, 376.67621972191955)" fill="#4a4a4a"/>
  <path id="Path_56" data-name="Path 56" d="M 177.532 373.866 L 189.971 373.866 C 190.218 373.866 190.418 374.067 190.418 374.313 L 190.418 375.602 C 190.418 375.849 190.218 376.049 189.971 376.049 L 177.532 376.049 C 177.285 376.049 177.085 375.849 177.085 375.602 L 177.085 374.313 C 177.085 374.067 177.285 373.866 177.532 373.866 Z M 191.268 373.866 L 192.88 373.866 C 193.126 373.866 193.326 374.067 193.326 374.313 L 193.326 375.602 C 193.326 375.849 193.126 376.049 192.88 376.049 L 191.268 376.049 C 191.021 376.049 190.821 375.849 190.821 375.602 L 190.821 374.313 C 190.821 374.067 191.021 373.866 191.268 373.866 Z" fill="#4a4a4a" fill-rule="evenodd" style="transform-origin: 185.206px 374.957px;" transform="matrix(0.965886116028, -0.258967936039, 0.258967936039, 0.965886116028, -0.000012715121, 0.000024672002)"/>
  <rect id="Rectangle_67" data-name="Rectangle 67" width="2.182" height="2.182" rx="1" transform="matrix(0.9658860564231873, -0.25896796584129333, 0.25896796584129333, 0.9658860564231873, 193.15668300261135, 371.69620858717553)" fill="#4a4a4a"/>
  <rect id="Rectangle_68" data-name="Rectangle 68" width="2.182" height="2.182" rx="1" transform="matrix(0.9658860564231873, -0.25896796584129333, 0.25896796584129333, 0.9658860564231873, 195.65421115321536, 371.0265613504216)" fill="#4a4a4a"/>
  <rect id="Rectangle_69" data-name="Rectangle 69" width="2.182" height="2.182" rx="1" transform="matrix(0.9658860564231873, -0.25896796584129333, 0.25896796584129333, 0.9658860564231873, 200.33647752810927, 369.7711902192586)" fill="#4a4a4a"/>
  <path id="Path_57" data-name="Path 57" d="M 200.26 370.101 L 200.26 370.583 C 200.26 370.83 200.06 371.03 199.813 371.03 L 198.525 371.03 C 198.278 371.03 198.078 370.83 198.078 370.583 L 198.078 370.101 L 200.26 370.101 Z" fill="#4a4a4a" style="transform-origin: 199.169px 370.565px;" transform="matrix(-0.965886116022, 0.258967936039, -0.25896793604, -0.965886116028, -0.000001379728, -0.000009856261)"/>
  <rect id="Rectangle_70" data-name="Rectangle 70" width="36.36" height="0.969" rx="1.085" transform="matrix(0.9658860564231873, -0.25896796584129333, 0.25896796584129333, 0.9658860564231873, 164.23264039256085, 367.40479610576585)" fill="#4a4a4a"/>
  <rect id="Rectangle_71" data-name="Rectangle 71" width="2.039" height="0.646" rx="0.723" transform="matrix(0.9658860564231873, -0.25896796584129333, 0.25896796584129333, 0.9658860564231873, 165.13354984323817, 367.33088252934425)" fill="#d8d8d8" opacity="0.136"/>
  <rect id="Rectangle_72" data-name="Rectangle 72" width="2.039" height="0.646" rx="0.723" transform="matrix(0.9658860564231873, -0.25896796584129333, 0.25896796584129333, 0.9658860564231873, 167.82813000166792, 366.60843988086066)" fill="#d8d8d8" opacity="0.136"/>
  <rect id="Rectangle_73" data-name="Rectangle 73" width="2.039" height="0.646" rx="0.723" transform="matrix(0.9658860564231873, -0.25896796584129333, 0.25896796584129333, 0.9658860564231873, 169.901509580061, 366.05253166116836)" fill="#d8d8d8" opacity="0.136"/>
  <rect id="Rectangle_74" data-name="Rectangle 74" width="2.039" height="0.646" rx="0.723" transform="matrix(0.9658860564231873, -0.25896796584129333, 0.25896796584129333, 0.9658860564231873, 171.97409570139914, 365.49683706452925)" fill="#d8d8d8" opacity="0.136"/>
  <rect id="Rectangle_75" data-name="Rectangle 75" width="2.039" height="0.646" rx="0.723" transform="matrix(0.9658860564231873, -0.25896796584129333, 0.25896796584129333, 0.9658860564231873, 174.04746002100276, 364.9409288448369)" fill="#d8d8d8" opacity="0.136"/>
  <rect id="Rectangle_76" data-name="Rectangle 76" width="2.039" height="0.646" rx="0.723" transform="matrix(0.9658860564231873, -0.25896796584129333, 0.25896796584129333, 0.9658860564231873, 176.6385855865055, 364.24622667569565)" fill="#d8d8d8" opacity="0.136"/>
  <rect id="Rectangle_77" data-name="Rectangle 77" width="2.039" height="0.646" rx="0.723" transform="matrix(0.9658860564231873, -0.25896796584129333, 0.25896796584129333, 0.9658860564231873, 178.71117170784376, 363.6905320790565)" fill="#d8d8d8" opacity="0.136"/>
  <rect id="Rectangle_78" data-name="Rectangle 78" width="2.039" height="0.646" rx="0.723" transform="matrix(0.9658860564231873, -0.25896796584129333, 0.25896796584129333, 0.9658860564231873, 180.78453602744733, 363.1346238593642)" fill="#d8d8d8" opacity="0.136"/>
  <rect id="Rectangle_79" data-name="Rectangle 79" width="2.039" height="0.646" rx="0.723" transform="matrix(0.9658860564231873, -0.25896796584129333, 0.25896796584129333, 0.9658860564231873, 182.85712214878546, 362.57892926272507)" fill="#d8d8d8" opacity="0.136"/>
  <rect id="Rectangle_80" data-name="Rectangle 80" width="2.039" height="0.646" rx="0.723" transform="matrix(0.9658860564231873, -0.25896796584129333, 0.25896796584129333, 0.9658860564231873, 185.44864444281572, 361.8841050232677)" fill="#d8d8d8" opacity="0.136"/>
  <rect id="Rectangle_81" data-name="Rectangle 81" width="2.039" height="0.646" rx="0.723" transform="matrix(0.9658860564231873, -0.25896796584129333, 0.25896796584129333, 0.9658860564231873, 187.5212153053644, 361.3284409442076)" fill="#d8d8d8" opacity="0.136"/>
  <rect id="Rectangle_82" data-name="Rectangle 82" width="2.039" height="0.646" rx="0.723" transform="matrix(0.9658860564231873, -0.25896796584129333, 0.25896796584129333, 0.9658860564231873, 189.59459488375754, 360.77253272451526)" fill="#d8d8d8" opacity="0.136"/>
  <rect id="Rectangle_83" data-name="Rectangle 83" width="2.039" height="0.646" rx="0.723" transform="matrix(0.9658860564231873, -0.25896796584129333, 0.25896796584129333, 0.9658860564231873, 192.18572044926034, 360.077800037795)" fill="#d8d8d8" opacity="0.136"/>
  <rect id="Rectangle_84" data-name="Rectangle 84" width="2.039" height="0.646" rx="0.723" transform="matrix(0.9658860564231873, -0.25896796584129333, 0.25896796584129333, 0.9658860564231873, 194.25830657059853, 359.5221054411559)" fill="#d8d8d8" opacity="0.136"/>
  <rect id="Rectangle_85" data-name="Rectangle 85" width="2.039" height="0.646" rx="0.723" transform="matrix(0.9658860564231873, -0.25896796584129333, 0.25896796584129333, 0.9658860564231873, 196.3316708902021, 358.96622773904255)" fill="#d8d8d8" opacity="0.136"/>
</svg>